<?xml version="1.0" encoding="iso-8859-1"?>
<!-- Generator: Adobe Illustrator 16.0.0, SVG Export Plug-In . SVG Version: 6.00 Build 0)  -->
<!DOCTYPE svg PUBLIC "-//W3C//DTD SVG 1.1//EN" "http://www.w3.org/Graphics/SVG/1.1/DTD/svg11.dtd">
<svg version="1.1" id="Capa_1" xmlns="http://www.w3.org/2000/svg" xmlns:xlink="http://www.w3.org/1999/xlink" x="0px" y="0px"
	 width="32.5px" height="32.5px" viewBox="0 0 32.5 32.5" style="enable-background:new 0 0 32.5 32.5;" xml:space="preserve">
<g>
	<path d="M3.848,0v32.5h24.805V0H3.848z M6.798,3.072h18.903v5.166H6.798V3.072L6.798,3.072z M11.735,30.018H6.771v-4.966h4.965
		V30.018z M11.735,22.908H6.771v-4.967h4.965V22.908z M11.735,15.799H6.771v-4.966h4.965V15.799z M18.731,30.018h-4.965v-4.966
		h4.965V30.018z M18.731,22.908h-4.965v-4.967h4.965V22.908z M18.731,15.799h-4.965v-4.966h4.965V15.799z M25.729,30.018h-4.965
		v-4.966h4.965V30.018z M25.729,22.908h-4.965v-4.967h4.965V22.908z M25.729,15.799h-4.965v-4.966h4.965V15.799z"/>
</g>
</svg>
