<?xml version="1.0" encoding="utf-8"?>
<!-- Generator: Adobe Illustrator 18.1.0, SVG Export Plug-In . SVG Version: 6.00 Build 0)  -->
<svg version="1.1" id="Layer_1" xmlns="http://www.w3.org/2000/svg" xmlns:xlink="http://www.w3.org/1999/xlink" x="0px" y="0px"
	 viewBox="0 0 140 140" enable-background="new 0 0 140 140" xml:space="preserve">
<g>
	<path fill="#263238" d="M15.2,59.2h66.1c19.9,0,30.9,3.9,30.9,3.9H8.6C8.6,63.2,11.2,60.1,15.2,59.2z"/>
	<path fill="#263238" d="M68.7,47.1L42.8,59.2h39.3L68.7,47.1z M46.6,58.7L57,53.8l0.5,4.9H46.6z M57.7,53.4l10.5-4.9l11.3,10.1
		H58.3L57.7,53.4z"/>
	<path fill="#263238" d="M35.1,55.1c-0.1-0.4-0.5-0.7-0.9-0.7H33l0.6,4.8h2.8L35.1,55.1z"/>
	<path fill="#263238" d="M14.2,58.7L0,70.9l7.4,10.8H106l33.5-23.1H14.2z M38,79.1H15.4c0-13.7,98.6-10.4,98.6-10.4
		C64.1,68.7,38,79.1,38,79.1z"/>
</g>
</svg>
