<?xml version="1.0" encoding="utf-8"?>
<!-- Generator: Adobe Illustrator 18.1.0, SVG Export Plug-In . SVG Version: 6.00 Build 0)  -->
<svg version="1.1" id="Layer_1" xmlns="http://www.w3.org/2000/svg" xmlns:xlink="http://www.w3.org/1999/xlink" x="0px" y="0px"
	 viewBox="0 0 140 140" enable-background="new 0 0 140 140" xml:space="preserve">
<g>
	<g>
		<path d="M3.3,21.5l-1.7-5.2C-1,10,1.8,10.9,1.8,10.9l12.7,1.1l0,0.1l0,0l15.7,46.7l-1.7,0.6l-14-41.6L3.3,21.5z"/>
		<path d="M3.5,25.4c2.1-1.9,6.1-2,8.7-1.4c1.1,0.3,3.2,0.8,4,1.5c1.1,1,1.5,4.8,1.9,6.2c0.4,1.6,0.8,3.2,1.2,4.8
			c0.9,3.6,1.9,7.2,2.8,10.8c1.8,6.8,3.5,13.7,5.3,20.5c0.1,0.2,1.1,4.3,1.1,4.3c0,0-1.7,0.4-1.7,0.4l-11.1-43
			c-1.8,2.1-6.9,3.1-9.1,3C3,32.5,0.8,27.9,3.5,25.4z"/>
		<path d="M30.2,12.9c-2.8-0.5-6.3,1.5-8.1,3.4c-0.8,0.8-2.3,2.3-2.6,3.4c-0.4,1.4,1.2,4.8,1.7,6.3
			c0.5,1.6,1,3.2,1.5,4.7c1.2,3.5,2.2,7.1,3.3,10.6c2.1,6.7,4.2,13.5,6.3,20.2c0.1,0.2,1.3,4.2,1.3,4.2c0,0,1.7-0.5,1.7-0.5
			L22.1,22.7c2.6,0.9,7.5-1,9.3-2.2C34.4,18.6,33.8,13.5,30.2,12.9z"/>
		<g>
			<path d="M35.2,51.2c0.1,0.4,0.2,0.7,0.3,1.1l4,24.3c0.5,3.3-1.5,6.4-4.6,6.9l-5.8,1c-3.1,0.5-6-1.7-6.6-5l-4-24.3
				c-0.1-0.4-0.1-0.8-0.1-1.2L35.2,51.2z"/>
			<path d="M17.7,57.1c0.5,3.1,2.7,5.4,5,5l11.2-1.9c2.2-0.4,3.6-3.2,3.1-6.4l0,0c-0.5-3.1-2.7-5.4-5-5l-11.2,1.9
				C18.6,51.1,17.2,54,17.7,57.1L17.7,57.1z"/>
		</g>
		<path d="M16.6,99.9c0.1,0.4,0.2,0.8,0.3,1.1c0.2,0.1,0.4,0.1,0.6,0.2c0-0.2-0.1-0.3-0.1-0.3l30.3-2l2.4,5h12.1
			c0.1,0,0.1,0,0.1,0H111c7.6-16,26.3-12,26.3-12c-1.5-5.6-11.3-13-18.3-17.8l2.4-7.8c-0.5-1.3-1.1-2.6-1.6-3.9
			c-3.8-9.1-7.4-18.3-11.6-27.3c5.9-1.5,2.2-6.3-1.6-7.9H42.9c-2.1,1-4.6,2.9-4.7,4.7c-0.1,1.4,0.6,2.4,1.8,3.1
			c-0.6,6.4-1.6,27.2,6.3,42.4l-11.8-1.8c-3.5,0-6.7-0.1-9.5,1.1c-1.6,0.7-3,1.9-4.3,3.7C16.9,86.2,14.8,93,16.6,99.9z M113.3,70.4
			l1.1-4.1L103,36.6c0.6,0,1.1-0.1,1.6-0.3c0.2-0.1,0.3-0.1,0.5-0.2L118,66.5l-1.8,5.7C115,71.5,114,70.9,113.3,70.4z M58.7,79.2
			c-9.4-13.2-8.8-35.3-8.3-42.9c0,0,0,0,0,0c4.7,0,9.5,0,14.2,0c10.8,0,21.7,0,32.5,0c0.7,0,1.6,0.1,2.6,0.2
			c2.8,7.2,11.5,30,11.5,30l-2.5,8.9L95.4,63.1l-1.1-4.5l1.5-2.3c0.4-0.6,0.2-1.4-0.4-1.8c-0.6-0.4-1.4-0.2-1.8,0.4l-8.1,12.7
			c-0.4,0.6-0.2,1.4,0.4,1.8c0.6,0.4,1.4,0.2,1.8-0.4l1.6-2.5l4.3-0.4l14.2,13l-3.8,13.7H88.5c0-3.6,0-8.3,0-8.3s-4.6,0-4.9,0
			c-5.8,0-11.5-0.1-17.3-0.1c-0.5-0.6-1.1-1.2-1.7-1.8v-5.3h-2.6v3.1c-0.9-0.6-1.7-1-2.3-1C59.3,79.2,59,79.2,58.7,79.2z M44.1,36.1
			c0.8,0.1,1.5,0.1,2.3,0.2c-0.6,7.8-1,27.7,6.8,42.1l-1.4-0.2C42.8,64.8,43.5,43.3,44.1,36.1z"/>
		<path d="M59.2,54.5c0.7,0.3,1.2,0.7,1.6,1c3.7,2.9,7,9.5,7.4,13.9c0.3,3.2,0.2,4.3,4,4.9c4.7,0.8,9.8-0.4,14.4,1.4
			c4.9,2,1.9,5.7,1.5,9.3c-2.3-0.1-27.6,0.9-27.8,0c-1.4-5.6-2.2-11.3-3.6-16.9c-0.6-2.4-1.2-4.7-2.2-7c-0.7-1.7-2.3-3.7-2.1-5.6
			C52.6,52.3,56.6,53.2,59.2,54.5z"/>
		<g>
			<path d="M114.3,104.7c0-6.6,5.4-12,12-12c6.6,0,12,5.4,12,12c0,6.6-5.4,12-12,12
				C119.6,116.6,114.3,111.3,114.3,104.7z M121.3,104.7c0,2.7,2.2,4.9,4.9,4.9c2.7,0,4.9-2.2,4.9-4.9c0-2.7-2.2-4.9-4.9-4.9
				C123.5,99.8,121.3,102,121.3,104.7z"/>
		</g>
		<g>
			<path d="M25.1,104.7c0-6.6,5.4-12,12-12s12,5.4,12,12c0,6.6-5.4,12-12,12S25.1,111.3,25.1,104.7z M32.1,104.7
				c0,2.7,2.2,4.9,4.9,4.9c2.7,0,4.9-2.2,4.9-4.9c0-2.7-2.2-4.9-4.9-4.9C34.3,99.8,32.1,102,32.1,104.7z"/>
		</g>
	</g>
</g>
</svg>