<?xml version="1.0" encoding="iso-8859-1"?>
<!-- Generator: Adobe Illustrator 16.0.0, SVG Export Plug-In . SVG Version: 6.00 Build 0)  -->
<!DOCTYPE svg PUBLIC "-//W3C//DTD SVG 1.1//EN" "http://www.w3.org/Graphics/SVG/1.1/DTD/svg11.dtd">
<svg version="1.1" id="Capa_1" xmlns="http://www.w3.org/2000/svg" xmlns:xlink="http://www.w3.org/1999/xlink" x="0px" y="0px"
	 width="123.411px" height="123.411px" viewBox="0 0 123.411 123.411" style="enable-background:new 0 0 123.411 123.411;"
	 xml:space="preserve">
<g>
	<g>
		<circle cx="55.044" cy="12.77" r="12.77"/>
		<path d="M69.969,68.482v2.445H59.38v26.18h35.456v-26.18h-10.59v-2.445c0-1.19-0.967-2.16-2.158-2.16h-0.202
			c0.18-0.645,0.231-1.334,0.129-2.038c-2.965-20.219-7.455-28.878-18.476-35.635c-0.214-0.131-0.438-0.226-0.661-0.321
			c-1.424-0.949-3.021-1.647-4.65-2.048l-3.183,3.203l-3.083-3.238c-0.012,0.002-0.022,0.002-0.031,0.006
			c-2.362,0.564-4.654,1.76-6.447,3.441c-9.847,6.623-14.041,15.397-16.854,34.591c-0.398,2.709,1.477,5.227,4.187,5.626
			c0.243,0.035,0.485,0.052,0.725,0.052c2.42,0,4.539-1.773,4.899-4.238c1.013-6.906,2.185-11.952,3.535-15.765v15.611
			c0,1.334,0.259,2.577,0.714,3.723c-0.035,0.257-0.059,0.519-0.059,0.785l0.003,47.476c0,3.236,2.623,5.859,5.859,5.858
			c3.236,0,5.859-2.624,5.859-5.86l-0.003-40.742c0.232,0.008,0.464,0.027,0.696,0.027c0.048,0,0.093-0.005,0.14-0.005
			l-0.004,40.722c0,3.235,2.625,5.857,5.859,5.857c3.236,0,5.859-2.623,5.859-5.857L66.9,99.094h-9.323V69.309h9.818
			c0.46-1.148,0.722-2.396,0.722-3.737V48.494c1.586,3.96,2.938,9.402,4.086,17.229c0.029,0.207,0.09,0.402,0.145,0.6h-0.219
			C70.937,66.322,69.969,67.292,69.969,68.482z M55.074,54.758h-0.059l-3.08-4.215l2.385-15.945c0.239-0.642,0.34-1.323,0.302-2.01
			l0.394-2.631h0.059l3.08,20.586L55.074,54.758z M77.101,69.962c0.24,0,0.48-0.017,0.725-0.052
			c1.281-0.189,2.371-0.854,3.127-1.784h1.135c0.197,0,0.355,0.16,0.355,0.356v2.445H71.771v-2.445c0-0.196,0.159-0.356,0.355-0.356
			h1.129C74.179,69.259,75.58,69.962,77.101,69.962z"/>
	</g>
</g>
</svg>
