<?xml version="1.0" encoding="utf-8"?>
<!-- Generator: Adobe Illustrator 18.1.0, SVG Export Plug-In . SVG Version: 6.00 Build 0)  -->
<svg version="1.1" id="Layer_1" xmlns="http://www.w3.org/2000/svg" xmlns:xlink="http://www.w3.org/1999/xlink" x="0px" y="0px"
	 viewBox="0 0 140 140" enable-background="new 0 0 140 140" xml:space="preserve">
<g>
	<g>
		<g>
			<path fill="#263238" d="M126,56.4c0,0-0.1-19.4-24.9-28.9c0,0-0.4,3.7-1.5,7.7l-4.5-4.8h-8.8v5.8h6.2l4.9,5.1
				c-1.3,2.4-1.7,5.4-3.9,5.3c-7.6-6-20.7-7.9-29.5-7.3c-2.9,3.4-5.9,6.8-7.7,8.5l22.2,5v3l-29.2-6.2c0,0,0,0,0,0l0,0l0,0
				c-0.6-0.1-1-0.3-1-0.3l-20.6-6.6l3-7.6H4.3v3l39.5,24.6L21.2,79.8l4.4,6.9l23.9-10.8v7.9c0,5.5,4.4,9.9,9.9,9.9h5.4h11h16.5v-8
				c0.3-3.1,0.9-6.7,2.3-10.3l21.1,9.7l3-4.1l-18.4-15C105.3,60.5,113.3,56.4,126,56.4z M122.5,53.9h-5.2l-3.7-17
				C113.6,36.9,124.7,45.5,122.5,53.9z M76.2,81.8h-23c-1,0-1.8-0.8-1.8-1.8c0-1,0.8-1.8,1.8-1.8h23c1,0,1.8,0.8,1.8,1.8
				C78.1,81,77.2,81.8,76.2,81.8z"/>
			<g>
				<path fill="#263238" d="M30.7,86.2c-1.2,4.1-4.9,7-9.4,7c-5.4,0-9.8-4.4-9.8-9.8c0-5.4,4.4-9.8,9.8-9.8c1.4,0,2.8,0.3,4.1,0.9
					l9.8-7.4c-3.7-3.2-8.5-5.1-13.8-5.1C9.5,62.2,0,71.7,0,83.5c0,11.8,9.5,21.3,21.3,21.3c11.8,0,21.3-9.5,21.3-21.3
					c0-0.9-0.1-1.7-0.2-2.6L30.7,86.2z"/>
				<path fill="#263238" d="M117.8,62.2c-5.2,0-9.9,1.8-13.6,4.9l9.4,7.6c1.3-0.6,2.7-0.9,4.2-0.9c5.4,0,9.8,4.4,9.8,9.8
					c0,5.4-4.4,9.8-9.8,9.8c-5.4,0-9.8-4.4-9.8-9.8c0,0,0-0.1,0-0.1l-10.9-5c-0.4,1.7-0.6,3.4-0.6,5.2c0,11.8,9.5,21.3,21.3,21.3
					c11.8,0,21.3-9.5,21.3-21.3C139.1,71.7,129.6,62.2,117.8,62.2z"/>
			</g>
		</g>
	</g>
</g>
</svg>
