<?xml version="1.0" encoding="utf-8"?>
<!-- Generator: Adobe Illustrator 19.2.0, SVG Export Plug-In . SVG Version: 6.00 Build 0)  -->
<svg version="1.1" id="Layer_1" xmlns="http://www.w3.org/2000/svg" xmlns:xlink="http://www.w3.org/1999/xlink" x="0px" y="0px"
	 viewBox="0 0 150 150" style="enable-background:new 0 0 150 150;" xml:space="preserve">
<g>
	<g>
		<path d="M50,35l1.1,1.4c-0.8,0.5-1.3,0.6-1.5,0.3C49.3,36.4,49.5,35.8,50,35z"/>
		<path d="M56,36.6c0.3,0.4,0.1,1.1-0.7,2.2l-1.6-2.1C54.7,36,55.5,36,56,36.6z"/>
		<path d="M47.4,29.9c-4,3-4.7,8.7-1.7,12.7c3,4,8.7,4.7,12.7,1.7c4-3,4.7-8.7,1.7-12.7C57,27.6,51.4,26.8,47.4,29.9z
			 M58.2,37.7c-0.3,0.8-0.9,1.7-1.8,2.7l1,1.4c0.3,0.4,0.2,0.8-0.3,1.2c-0.2,0.2-0.5,0.2-0.7,0.2c-0.2,0-0.3-0.1-0.4-0.3l-0.9-1.2
			c-0.2,0.1-0.3,0.3-0.5,0.4c-0.9,0.7-1.7,1.1-2.4,1.3c-0.6,0.2-1,0.1-1.2-0.1c-0.4-0.5-0.2-1.1,0.5-1.6c0.2-0.1,0.5-0.3,1.1-0.6
			c0.5-0.2,0.9-0.4,1-0.5c0.1-0.1,0.3-0.2,0.4-0.4l-1.8-2.4c-0.8,0.6-1.6,1-2.3,1.2c-1,0.3-1.6,0.1-2-0.4c-0.5-0.6-0.6-1.4-0.3-2.4
			c0.2-0.9,0.7-1.8,1.4-2.6l-0.7-0.9c-0.3-0.4-0.2-0.8,0.3-1.2c0.5-0.4,0.9-0.3,1.2,0.1l0.6,0.7c0.5-0.4,1.2-0.7,1.9-1
			c0.9-0.4,1.4-0.4,1.6-0.2c0.2,0.2,0.2,0.5,0.1,0.7c-0.1,0.3-0.2,0.5-0.5,0.7c-0.2,0.2-0.6,0.4-1,0.6c-0.5,0.2-0.8,0.4-1,0.6
			l1.3,1.7c0.1,0,0.1-0.1,0.2-0.1c1.1-0.7,2-1.1,2.9-1.1c1-0.1,1.8,0.3,2.4,1.1C58.6,35.8,58.6,36.7,58.2,37.7z"/>
	</g>
	<g>
		<path d="M79,41.9l-0.3,1.8c-1-0.3-1.4-0.6-1.4-1C77.4,42.3,78,42,79,41.9z"/>
		<path d="M82.1,47.7c-0.1,0.5-0.8,0.9-2.2,1l0.5-2.8C81.7,46.3,82.3,46.8,82.1,47.7z"/>
		<path d="M81.1,36c-5.3-0.9-10.3,2.7-11.2,8c-0.9,5.3,2.7,10.3,8,11.2c5.3,0.9,10.3-2.7,11.2-8
			C90,41.9,86.4,36.9,81.1,36z M83,50.2c-0.9,0.4-2,0.5-3.4,0.5l-0.3,1.8c-0.1,0.5-0.5,0.7-1.2,0.6c-0.3,0-0.5-0.2-0.7-0.4
			c-0.1-0.2-0.1-0.4-0.1-0.5l0.3-1.6c-0.2,0-0.5-0.1-0.7-0.1c-1.2-0.2-2.1-0.5-2.8-0.9c-0.6-0.3-0.8-0.7-0.8-1
			c0.1-0.7,0.7-1,1.6-0.8c0.2,0,0.7,0.2,1.2,0.4c0.6,0.2,0.9,0.4,1.1,0.4c0.2,0,0.4,0,0.6,0.1l0.5-3.2c-1.1-0.2-1.9-0.6-2.6-1
			c-0.9-0.6-1.3-1.2-1.2-1.9c0.1-0.8,0.7-1.5,1.7-2c0.9-0.5,1.9-0.8,3.1-0.9l0.2-1.2c0.1-0.6,0.5-0.8,1.1-0.7c0.6,0.1,0.9,0.4,0.8,1
			l-0.2,1c0.7,0.1,1.4,0.4,2.1,0.7c1,0.4,1.4,0.8,1.4,1.1c0,0.3-0.2,0.5-0.5,0.6c-0.3,0.2-0.6,0.2-0.9,0.1c-0.3,0-0.7-0.2-1.2-0.3
			c-0.5-0.2-0.9-0.3-1.2-0.4l-0.4,2.2c0.1,0,0.1,0,0.2,0c1.3,0.3,2.3,0.8,3,1.4c0.8,0.7,1.1,1.6,0.9,2.6
			C84.7,49.1,84.1,49.8,83,50.2z"/>
	</g>
	<g>
		<path d="M71.8,17.7l0.2,1.9c-1,0-1.5-0.2-1.6-0.6C70.3,18.5,70.8,18.1,71.8,17.7z"/>
		<path d="M76.3,22.5c0.1,0.6-0.6,1.1-1.9,1.6l-0.3-2.8C75.5,21.2,76.2,21.6,76.3,22.5z"/>
		<path d="M72.2,11.5c-5.3,0.6-9.2,5.4-8.6,10.7c0.6,5.3,5.4,9.2,10.7,8.6c5.3-0.6,9.2-5.4,8.6-10.7
			C82.4,14.8,77.6,10.9,72.2,11.5z M77.8,24.7c-0.8,0.6-1.8,1.1-3.1,1.4l0.2,1.8c0.1,0.5-0.3,0.8-1,0.9c-0.3,0-0.6,0-0.7-0.2
			c-0.2-0.1-0.2-0.3-0.3-0.5l-0.2-1.6c-0.2,0-0.5,0.1-0.7,0.1c-1.2,0.1-2.2,0.1-2.9-0.1c-0.6-0.2-1-0.4-1-0.8
			c-0.1-0.7,0.4-1.1,1.3-1.2c0.3,0,0.7,0,1.3,0.1c0.6,0.1,1,0.1,1.2,0.1c0.2,0,0.4-0.1,0.6-0.1l-0.3-3.2c-1.1,0.1-2,0-2.8-0.2
			c-1-0.3-1.6-0.8-1.7-1.5c-0.1-0.8,0.3-1.6,1.1-2.4c0.7-0.7,1.6-1.2,2.7-1.6l-0.1-1.2c-0.1-0.6,0.2-0.9,0.9-1
			c0.6-0.1,1,0.2,1.1,0.8l0.1,1c0.7,0,1.4,0,2.3,0.1c1,0.2,1.6,0.4,1.6,0.7c0,0.3-0.1,0.5-0.3,0.8c-0.2,0.2-0.5,0.4-0.9,0.4
			c-0.3,0-0.7,0-1.2,0c-0.6,0-1,0-1.2,0l0.2,2.2c0.1,0,0.1,0,0.2,0c1.4-0.1,2.5,0.1,3.3,0.6c0.9,0.5,1.5,1.3,1.6,2.3
			C79.1,23.2,78.7,24,77.8,24.7z"/>
	</g>
	<g>
		<path d="M98.8,27l-0.4,1.3c-0.7-0.3-1-0.5-0.9-0.8C97.6,27.2,98.1,27,98.8,27z"/>
		<path d="M100.7,31.5c-0.1,0.4-0.7,0.6-1.7,0.6l0.6-2C100.5,30.4,100.9,30.9,100.7,31.5z"/>
		<path d="M100.8,22.8C97,21.7,93,24,91.9,27.9c-1.1,3.9,1.2,7.9,5.1,8.9c3.9,1.1,7.9-1.2,8.9-5.1
			C107,27.8,104.7,23.8,100.8,22.8z M101.1,33.5c-0.7,0.2-1.5,0.2-2.6,0.1l-0.4,1.3c-0.1,0.4-0.4,0.5-0.9,0.4
			c-0.2-0.1-0.4-0.2-0.5-0.3c-0.1-0.1-0.1-0.3,0-0.4l0.3-1.2c-0.2,0-0.3-0.1-0.5-0.1c-0.9-0.2-1.6-0.5-2-0.9
			c-0.4-0.3-0.6-0.6-0.5-0.8c0.1-0.5,0.6-0.7,1.3-0.5c0.2,0.1,0.5,0.2,0.9,0.4c0.4,0.2,0.7,0.4,0.8,0.4c0.1,0,0.3,0.1,0.4,0.1
			l0.6-2.3c-0.8-0.3-1.4-0.6-1.9-0.9c-0.6-0.5-0.9-1-0.7-1.5c0.2-0.6,0.6-1,1.4-1.3c0.7-0.3,1.5-0.4,2.4-0.4l0.2-0.9
			c0.1-0.4,0.4-0.6,0.9-0.4c0.5,0.1,0.6,0.4,0.5,0.8l-0.2,0.7c0.5,0.2,1,0.4,1.5,0.7c0.7,0.4,1,0.7,0.9,1c-0.1,0.2-0.2,0.3-0.4,0.4
			c-0.2,0.1-0.5,0.1-0.7,0c-0.2-0.1-0.5-0.2-0.9-0.3c-0.4-0.2-0.7-0.3-0.9-0.4l-0.4,1.6c0.1,0,0.1,0,0.1,0c1,0.3,1.7,0.8,2.1,1.3
			c0.5,0.6,0.7,1.3,0.5,2C102.5,32.8,101.9,33.2,101.1,33.5z"/>
	</g>
	<g>
		<path d="M89,3.5l-0.2,1.1C88.2,4.4,88,4.2,88,4C88.1,3.7,88.4,3.5,89,3.5z"/>
		<path d="M90.8,6.8c-0.1,0.3-0.5,0.5-1.3,0.6l0.3-1.6C90.5,6,90.8,6.3,90.8,6.8z"/>
		<path d="M90.2,0.1c-3-0.5-5.9,1.6-6.4,4.6c-0.5,3,1.6,5.9,4.6,6.4c3,0.5,5.9-1.6,6.4-4.6C95.3,3.5,93.2,0.6,90.2,0.1z
			 M91.3,8.3c-0.5,0.2-1.2,0.3-2,0.3l-0.2,1c0,0.3-0.3,0.4-0.7,0.3c-0.2,0-0.3-0.1-0.4-0.2C88,9.6,88,9.5,88,9.4l0.2-0.9
			c-0.1,0-0.3,0-0.4-0.1c-0.7-0.1-1.2-0.3-1.6-0.5c-0.3-0.2-0.5-0.4-0.4-0.6c0.1-0.4,0.4-0.5,0.9-0.5c0.1,0,0.4,0.1,0.7,0.2
			c0.3,0.1,0.5,0.2,0.6,0.2c0.1,0,0.2,0,0.3,0l0.3-1.8C88,5.4,87.5,5.2,87.1,5c-0.5-0.3-0.8-0.7-0.7-1.1c0.1-0.5,0.4-0.8,1-1.1
			c0.5-0.3,1.1-0.4,1.8-0.5l0.1-0.7c0.1-0.3,0.3-0.5,0.7-0.4c0.4,0.1,0.5,0.3,0.5,0.6l-0.1,0.6c0.4,0.1,0.8,0.2,1.2,0.4
			c0.6,0.2,0.8,0.5,0.8,0.7c0,0.2-0.1,0.3-0.3,0.4c-0.2,0.1-0.3,0.1-0.5,0.1c-0.2,0-0.4-0.1-0.7-0.2c-0.3-0.1-0.5-0.2-0.7-0.2
			l-0.2,1.3c0,0,0.1,0,0.1,0c0.8,0.2,1.3,0.4,1.7,0.8c0.4,0.4,0.6,0.9,0.5,1.5C92.2,7.6,91.9,8,91.3,8.3z"/>
	</g>
	<g>
		<path d="M51.1,8.1l0.7,0.8c-0.5,0.3-0.8,0.4-0.9,0.2C50.7,8.9,50.7,8.6,51.1,8.1z"/>
		<path d="M54.8,8.8c0.2,0.2,0.1,0.7-0.4,1.4L53.4,9C54,8.5,54.4,8.5,54.8,8.8z"/>
		<path d="M49.2,5c-2.3,2-2.6,5.6-0.6,7.9c2,2.3,5.6,2.6,7.9,0.6c2.3-2,2.6-5.6,0.6-7.9C55.1,3.2,51.6,3,49.2,5z
			 M56.2,9.4c-0.2,0.5-0.5,1.1-1,1.7l0.7,0.8c0.2,0.2,0.1,0.5-0.2,0.7c-0.1,0.1-0.3,0.2-0.4,0.1c-0.1,0-0.2-0.1-0.3-0.1l-0.6-0.7
			c-0.1,0.1-0.2,0.2-0.3,0.3c-0.5,0.5-1,0.8-1.4,0.9c-0.4,0.1-0.6,0.1-0.7,0c-0.3-0.3-0.2-0.6,0.2-1c0.1-0.1,0.3-0.2,0.6-0.4
			c0.3-0.2,0.5-0.3,0.6-0.3c0.1-0.1,0.2-0.1,0.2-0.2l-1.2-1.4c-0.5,0.4-1,0.6-1.4,0.8c-0.6,0.2-1,0.1-1.3-0.2
			c-0.3-0.4-0.4-0.8-0.3-1.5c0.1-0.6,0.4-1.1,0.8-1.7l-0.5-0.5c-0.2-0.3-0.2-0.5,0.1-0.8c0.3-0.2,0.5-0.2,0.7,0l0.4,0.4
			c0.3-0.2,0.7-0.5,1.1-0.7c0.5-0.3,0.9-0.3,1-0.2c0.1,0.1,0.1,0.3,0.1,0.5c0,0.2-0.1,0.3-0.3,0.5c-0.1,0.1-0.3,0.2-0.6,0.4
			c-0.3,0.2-0.5,0.3-0.6,0.4l0.8,1c0,0,0.1-0.1,0.1-0.1c0.6-0.5,1.2-0.7,1.7-0.8c0.6-0.1,1.1,0.1,1.5,0.6
			C56.3,8.2,56.4,8.8,56.2,9.4z"/>
	</g>
	<g>
		<path d="M58.3,64.3c0.1,0.5,0.1,0.9,0.2,1.4C58.5,65.2,58.4,64.8,58.3,64.3z"/>
		<path d="M120.8,53c-0.8-2.2-1.8-4.3-2.8-6.4c-1-2-1.8-3.3-4.2-3.3c-8.9,0.1-18,7.3-21.8,15C91.2,60,90.5,62,90.1,64
			c-4-1.3-8.2-2.1-12.6-2.3v14.8h-5.8V61.7c-4.2,0.2-8.2,1-11.9,2.1c-1.5-8.3-8.4-15.5-16.1-18.8c-2.4-1-4.8-1.6-7.4-1.8
			c-2.9-0.2-3.8,2.4-4.9,4.6c-2.6,5.3-4.3,11-4.6,16.9c-0.3,5.6,1.6,11.1,4.8,15.7c0.5,0.7,1.5,2,2.7,3.3
			c-2.9,5.3-4.6,11.2-4.6,17.5c0,14.4,8.7,27,21.6,33.9c-0.4,0.8-0.7,1.8-0.7,2.8v5.9c0,3.3,2.7,6,6,6h7.4c3.3,0,6-2.7,6-6v-3.2
			c1.5,0.1,3,0.2,4.5,0.2c1.8,0,3.5-0.1,5.2-0.3v3.2c0,3.3,2.7,6,6,6h7.4c3.3,0,6-2.7,6-6V138c0-1.1-0.3-2.2-0.8-3.1
			c12.6-7,21.1-19.5,21.1-33.6c0-6.1-1.6-11.9-4.4-17.1c0.3-0.3,0.5-0.5,0.8-0.8c4.2-4.1,6.5-9.8,7.2-15.6v0c0-0.1,0-0.1,0-0.2
			c0-0.1,0-0.1,0-0.2C123.6,62.6,122.5,57.7,120.8,53z M87.9,77.9c3.8,0,6.9,4.5,6.9,10c0,1.9-0.4,3.6-1,5.1
			c-1.6-0.7-3.6-1.2-5.8-1.2c-2.3,0-4.4,0.5-6.1,1.3c-0.6-1.5-1-3.3-1-5.3C80.9,82.4,84,77.9,87.9,77.9z M74.6,97
			c6.2,0,11.2,3.6,11.2,8.1c0,4.5-5,8.1-11.2,8.1c-6.2,0-11.2-3.6-11.2-8.1C63.4,100.6,68.4,97,74.6,97z M38.8,85.4
			c-1.3-0.8-2.6-1.8-3.7-3c-3.9-3.9-6.5-9.5-6.8-14.7c-0.5-7.6,2.3-15.6,6-22.1c0.3-0.5,0.8-0.7,1.3-0.7c6.7,0,14.1,4.6,18.2,9.7
			c2.2,2.8,3.9,6.2,4.6,9.8c0.1,0.4,0.1,0.9,0.2,1.4c0.1,1.2,0.1,2.5-0.1,3.7c0,0.1,0,0.2,0,0.3c0,0.1,0,0.2,0,0.3
			c0,0.1,0,0.2-0.1,0.3c-0.1,0.3-0.1,0.6-0.2,0.9c0,0.1,0,0.1-0.1,0.2c-0.1,0.2-0.1,0.3-0.2,0.4c0,0,0,0-0.1,0.1
			c-0.1,0.1-0.1,0.1-0.2,0.1c-0.1,0-0.1,0.1-0.2,0.1c-1,0.5-2.6-0.3-2.2-1.7c0.4-1.6,0.5-3.2,0.3-4.8c-0.4-3.5-2.1-6.9-4.3-9.3
			c-3.6-3.9-9.1-7.9-14.7-8.2c-3,5.6-5.5,12.4-5.3,18.7c0.2,4.7,2.2,9.8,5.6,13.4c1.1,1.1,2.3,2.1,3.6,2.9
			C42,83.9,40.5,86.4,38.8,85.4z M52.4,66.8c-0.5,0.2-1,0.5-1.4,0.7c-1.7-6.2-6.7-11.3-13.2-13.4c-0.8-0.3-1.1-0.9-1-1.5
			c0.1-0.9,0.8-1.7,1.8-1.3c7.2,2.4,12.9,8.1,15.1,14.9c0,0,0,0,0,0C53.2,66.4,52.8,66.6,52.4,66.8z M54.5,93.2
			c-0.6-1.5-1-3.3-1-5.3c0-5.5,3.1-10,6.9-10c3.8,0,6.9,4.5,6.9,10c0,1.9-0.4,3.6-1,5.1c-1.6-0.7-3.6-1.2-5.8-1.2
			C58.3,91.9,56.2,92.4,54.5,93.2z M99.2,124.9c-2.8-0.1-5.4-1-7.5-2.5c-6.5,9.2-19,13.1-29.1,7.1c-1.6-1-0.1-3.6,1.5-2.6
			c8.9,5.3,19.8,1.7,25.4-6.5c-1.5-1.9-2.5-4.3-2.6-7c-0.1-1.9,2.9-1.9,3,0c0.1,5.1,4.4,8.5,9.3,8.6
			C101.1,121.9,101.1,124.9,99.2,124.9z M99.5,68.2c-0.5-0.3-1-0.6-1.4-0.8c-0.4-0.2-0.9-0.5-1.3-0.7c1.7-7.7,7.7-14.1,15.6-16.7
			c0.2-0.1,0.5-0.1,0.7-0.1c1,0.1,1.4,1.3,1,2.2v0c-0.2,0.3-0.4,0.6-0.9,0.8C106,55.3,100.6,61.2,99.5,68.2z M121.7,67.7
			c-0.5,5.5-3.1,11.3-7.3,15.2c-1,1-2.1,1.8-3.3,2.5c-1.6,1-3.1-1.6-1.5-2.6c1.1-0.7,2.2-1.5,3.1-2.5c3.6-3.6,6-9,6-13.8
			c0.1-6.4-2.2-13.1-5.3-18.7c-5.5,0.3-11.3,4.3-14.7,8.2c-2.2,2.6-4,6.1-4.3,9.6c-0.2,1.5-0.1,3.1,0.3,4.5c0.5,1.9-2.4,2.6-2.9,0.8
			c-0.6-2.1-0.6-4.3-0.3-6.5c0.6-3.7,2.3-7.4,4.6-10.1c4.3-5,11.3-9.7,18.2-9.7c0.5,0,1,0.3,1.3,0.7C119.3,52,122.4,60.3,121.7,67.7
			z"/>
		<path d="M58.5,65.7c0-0.5-0.1-0.9-0.2-1.4C58.4,64.8,58.5,65.2,58.5,65.7z"/>
		<ellipse cx="69.9" cy="105" rx="1.8" ry="3.4"/>
		<ellipse cx="79.5" cy="105" rx="1.8" ry="3.4"/>
		<ellipse cx="69.9" cy="105" rx="1.8" ry="3.4"/>
		<ellipse cx="79.5" cy="105" rx="1.8" ry="3.4"/>
		<g>
			<path d="M58.5,65.7c0-0.5-0.1-0.9-0.2-1.4C58.4,64.8,58.5,65.2,58.5,65.7z"/>
			<path d="M58.3,64.3c0.1,0.5,0.1,0.9,0.2,1.4C58.5,65.2,58.4,64.8,58.3,64.3z"/>
		</g>
		<ellipse cx="60.8" cy="83.1" rx="3.6" ry="5"/>
		<ellipse cx="87.9" cy="83.1" rx="3.6" ry="5"/>
		<ellipse cx="69.9" cy="105" rx="1.8" ry="3.4"/>
		<ellipse cx="79.5" cy="105" rx="1.8" ry="3.4"/>
	</g>
</g>
</svg>
