<?xml version="1.0" encoding="utf-8"?>
<!-- Generator: Adobe Illustrator 18.1.0, SVG Export Plug-In . SVG Version: 6.00 Build 0)  -->
<svg version="1.1" id="Layer_1" xmlns="http://www.w3.org/2000/svg" xmlns:xlink="http://www.w3.org/1999/xlink" x="0px" y="0px"
	 viewBox="0 0 140 140" enable-background="new 0 0 140 140" xml:space="preserve">
<g>
	<g>
		<g>
			<path fill="#263238" d="M10.4,84.4h8c-0.7-1.4-1-3-1-4.7c0-6.2,5.1-11.3,11.3-11.3c6.2,0,11.3,5.1,11.3,11.3c0,1.7-0.4,3.3-1,4.7
				H98c-0.7-1.4-1-3-1-4.7c0-6.2,5.1-11.3,11.3-11.3c6.2,0,11.3,5.1,11.3,11.3c0,1.7-0.4,3.3-1,4.7h16.6c0,0,5-5.5,3.7-13.4
				c-1.2-7.6-25.7-13.8-35.5-12c-7.5-4.7-24.1-13.4-26.9-12.9c-4.4,0.8,17.7,13.1,17.7,13.1s-5.8-3.4-6.4,2
				c-6.8,0.5-15.2,0.9-23.7,0.9c-1.6-4.2-2.7-8.8-4.5-8.8c-1.9,0-3.6,4.5-1.2,8.8c-15.8-0.1-29.2-1.4-35.3-5c0,0-18.6-3.6-18.6,2.1
				l-2.1,11C2.3,70.2-6.6,77.6,10.4,84.4z M116.8,65.6c0,0,11.8,0.2,19.8,5.2h-9.3C127.4,70.8,118.9,68.6,116.8,65.6z M71.6,65.8
				c0,0.5-0.4,0.9-0.9,0.9H66c-0.5,0-0.9-0.4-0.9-0.9c0-0.5,0.4-0.9,0.9-0.9h4.7C71.2,64.9,71.6,65.3,71.6,65.8z M41.6,81.7h52.9
				l1.1,1.9H40.5L41.6,81.7z M3.6,69.5l1.1-7.4c0,0,8.4-0.2,2.6,7.4H3.6z"/>
			<g>
				<g>
					<path fill="#263238" d="M98.5,79.7c0,5.4,4.4,9.8,9.8,9.8c5.4,0,9.8-4.4,9.8-9.8c0-5.4-4.4-9.8-9.8-9.8
						C102.9,69.9,98.5,74.3,98.5,79.7z M100.5,79.7c0-4.3,3.5-7.8,7.8-7.8c4.3,0,7.8,3.5,7.8,7.8c0,4.3-3.5,7.8-7.8,7.8
						C104,87.5,100.5,84,100.5,79.7z"/>
					<circle fill="#263238" cx="108.3" cy="79.7" r="3"/>
				</g>
				<g>
					<path fill="#263238" d="M18.8,79.7c0,5.4,4.4,9.8,9.8,9.8c5.4,0,9.8-4.4,9.8-9.8c0-5.4-4.4-9.8-9.8-9.8
						C23.2,69.9,18.8,74.3,18.8,79.7z M20.8,79.7c0-4.3,3.5-7.8,7.8-7.8c4.3,0,7.8,3.5,7.8,7.8c0,4.3-3.5,7.8-7.8,7.8
						C24.3,87.5,20.8,84,20.8,79.7z"/>
					<circle fill="#263238" cx="28.6" cy="79.7" r="3"/>
				</g>
			</g>
		</g>
	</g>
</g>
</svg>
