<?xml version="1.0" encoding="iso-8859-1"?>
<!-- Generator: Adobe Illustrator 16.0.0, SVG Export Plug-In . SVG Version: 6.00 Build 0)  -->
<!DOCTYPE svg PUBLIC "-//W3C//DTD SVG 1.1//EN" "http://www.w3.org/Graphics/SVG/1.1/DTD/svg11.dtd">
<svg version="1.1" id="Capa_1" xmlns="http://www.w3.org/2000/svg" xmlns:xlink="http://www.w3.org/1999/xlink" x="0px" y="0px"
	 width="123.412px" height="123.412px" viewBox="0 0 123.412 123.412" style="enable-background:new 0 0 123.412 123.412;"
	 xml:space="preserve">
<g>
	<g>
		<path d="M123.387,40.125l-0.269-5.852l-5.685-1.414c-13.066-3.253-13.367-15.431-13.375-15.906V10.72L97.98,9.3
			c-1.477-0.341-14.678-3.336-23.875-3.336c-9.196,0-22.398,2.995-23.882,3.336l-6.072,1.42v6.233
			c-0.002,0.513-0.185,12.623-13.374,15.906l-5.684,1.414l-0.269,5.852c-0.022,0.528-0.523,13.099,4.828,28.554
			c4.959,14.32,16.075,34.067,40.862,46.811l3.59,1.844l3.592-1.844c24.787-12.742,35.902-32.489,40.863-46.811
			C123.803,53.535,123.441,41.461,123.387,40.125z M110.792,65.986c-4.458,12.87-14.44,30.606-36.687,42.104
			C51.859,96.595,41.878,78.856,37.421,65.986c-4.485-12.955-4.438-23.388-4.392-25.219c18.042-4.647,19.257-21.04,19.338-23.524
			c2.025-0.457,13.886-3.061,21.738-3.061c7.861,0,19.742,2.61,21.74,3.061c0.09,2.335,1.368,18.895,19.336,23.524
			C115.227,42.622,115.258,53.085,110.792,65.986z"/>
		<path d="M77.963,56.68c-1.99-0.676-3.545-1.271-4.666-1.783c-1.119-0.512-1.904-0.975-2.359-1.39
			c-0.455-0.414-0.683-0.943-0.683-1.578c0-0.733,0.313-1.288,0.941-1.667c0.626-0.374,1.714-0.564,3.261-0.564
			c3.243,0,6.884,0.908,10.92,2.722l3.449-8.254c-3.902-1.68-7.773-2.629-11.619-2.841v-3.911h-5.995v3.969
			c-4.095,0.426-7.167,1.538-9.214,3.335c-2.048,1.793-3.071,4.285-3.071,7.473c0,2.087,0.345,3.827,1.028,5.229
			c0.685,1.401,1.782,2.667,3.289,3.795c1.507,1.132,3.484,2.15,5.938,3.06c2.185,0.789,3.916,1.467,5.2,2.025
			c1.285,0.559,2.202,1.063,2.753,1.508c0.549,0.442,0.827,0.983,0.827,1.621c0,0.926-0.383,1.59-1.146,1.986
			c-0.762,0.395-1.965,0.592-3.606,0.592c-1.987,0-4.297-0.38-6.924-1.144c-2.626-0.765-5.061-1.716-7.3-2.854v9.615
			c3.92,1.702,7.995,2.648,12.226,2.841v5.419h5.995V80.29c3.939-0.482,6.938-1.734,8.997-3.764
			c2.058-2.029,3.085-4.665,3.085-7.911c0-2.876-0.879-5.229-2.639-7.054C84.895,59.735,81.998,58.108,77.963,56.68z"/>
		<path d="M14.14,58.948h8.512c-0.883-4.239-1.368-7.993-1.625-11.009H14.14c-0.716,0-1.295,0.579-1.295,1.295v8.419
			C12.845,58.369,13.424,58.948,14.14,58.948z"/>
		<path d="M25.884,70.696c-1.053-3.038-1.89-5.963-2.558-8.725H1.295C0.579,61.972,0,62.55,0,63.267v8.418
			c0,0.717,0.579,1.297,1.295,1.297h25.417C26.422,72.207,26.142,71.442,25.884,70.696z"/>
		<path d="M10.254,78.162v8.419c0,0.716,0.579,1.295,1.295,1.295h22.398c-2.289-3.77-4.151-7.482-5.669-11.01H11.549
			C10.833,76.866,10.254,77.446,10.254,78.162z"/>
		<path d="M36.308,91.544H8.311c-0.716,0-1.296,0.579-1.296,1.296v8.419c0,0.717,0.58,1.295,1.296,1.295h36.87
			C41.748,98.951,38.814,95.24,36.308,91.544z"/>
		<path d="M11.549,106.438c-0.716,0-1.295,0.58-1.295,1.295v8.42c0,0.716,0.579,1.295,1.295,1.295h38.209
			c0.716,0,1.296-0.579,1.296-1.295v-8.002c-0.653-0.566-1.292-1.139-1.915-1.713H11.549z"/>
	</g>
</g>
</svg>
