<?xml version="1.0" encoding="utf-8"?>
<!-- Generator: Adobe Illustrator 18.1.0, SVG Export Plug-In . SVG Version: 6.00 Build 0)  -->
<svg version="1.1" id="Layer_1" xmlns="http://www.w3.org/2000/svg" xmlns:xlink="http://www.w3.org/1999/xlink" x="0px" y="0px"
	 viewBox="0 0 140 140" enable-background="new 0 0 140 140" xml:space="preserve">
<path fill-rule="evenodd" clip-rule="evenodd" fill="#263238" d="M38.2,68.2L31.1,65c-0.5-0.2-1-0.4-1.4-0.9l-3.9-5.4
	c-0.2-0.3-0.2-0.9,0.4-0.7l8.1,1.9l-2.6-3.5c-0.4-0.5-0.2-1,0.5-0.9l26.1,3.6c0.6,0.1,1.1,0.4,1.7,0.6c5.5,2.6,13.9,3.1,17.4-1
	c0.4-0.5,0.6-0.7,1.2-0.8c2.9-0.6,10.7-2.3,14.8-4l-1.2-1.6c-0.2,0.1-0.4,0.2-0.6-0.1c0,0-0.1,0-0.1,0c-0.8,0-1.5-0.7-1.5-1.5
	c0-0.6,0.4-1.2,1-1.4c0-0.1,0-0.2,0-0.3c0-0.4,0.3-0.7,0.7-0.4l3.3,1.7c0.6,0.3,0.3,1.1-0.5,0.9l-0.9-0.3c0,0-0.2,0.5-0.5,0.9
	l1.2,1.6c0.4-0.2,0.7-0.3,0.9-0.5c0.5-0.4,0.9-0.4,1.2-0.3C111,58,127,65.1,138.9,73.5c0.7,0.5,0.4,0.9-0.4,1.1
	c-1.1,0.3-4.2,0.9-6.7,1.1c0,0-4.7,4.6-5.2,5.2c-0.5,0.6-1.3,0.1-1.3,0.1s-6.1,4.2-6.7,4.7c-0.5,0.4-0.8,0.4-1.1,0.2
	c-0.3-0.2-0.6-0.5-0.6-0.5s-7.4,3.6-18.9,4.7c-11.6,1.1-73.2,0.2-73.9,0.2c-0.7,0-0.7-0.8-0.7-0.8s-12.9-0.2-14.5-0.2
	c-1.6,0-2.5-2.2-2.5-2.2s-0.8-0.3-0.9-0.9c-0.1-0.6-0.4-6.7-0.4-6.7L1,77.9c-0.4-0.2-0.5-0.7,0-1l9.3-4.5l3.3,0.2l7.9-2.7
	c0.7-0.2,1.7-0.3,2.1-0.3l7.8,0.6L38.2,68.2L38.2,68.2z M52,77.6l23.7,1.3l25.3-5.5c1.6-0.3,3.9-0.8,6.8-0.5l20.5,1.9
	c-0.2-1.4-1.7-2.9-6-3.5L106.6,69c-2.1-0.3-5.2-0.2-7.5,0.2L52,77.6z"/>
</svg>
