<?xml version="1.0" encoding="utf-8"?>
<!-- Generator: Adobe Illustrator 18.1.0, SVG Export Plug-In . SVG Version: 6.00 Build 0)  -->
<svg version="1.1" id="Layer_1" xmlns="http://www.w3.org/2000/svg" xmlns:xlink="http://www.w3.org/1999/xlink" x="0px" y="0px"
	 viewBox="0 0 140 140" enable-background="new 0 0 140 140" xml:space="preserve">
<g>
	<g>
		<path fill="#263238" d="M103.7,87.8c0,4.4,3.6,8,8,8c4.4,0,8-3.6,8-8c0-4.4-3.6-8-8-8C107.3,79.9,103.7,83.4,103.7,87.8z
			 M109.7,87.8c0-1.1,0.9-2,2-2c1.1,0,2,0.9,2,2s-0.9,2-2,2C110.6,89.8,109.7,88.9,109.7,87.8z"/>
		<path fill="#263238" d="M32.8,87.8c0,4.4,3.6,8,8,8c4.4,0,8-3.6,8-8c0-4.4-3.6-8-8-8C36.4,79.9,32.8,83.4,32.8,87.8z M38.8,87.8
			c0-1.1,0.9-2,2-2c1.1,0,2,0.9,2,2s-0.9,2-2,2C39.7,89.8,38.8,88.9,38.8,87.8z"/>
		<path fill="#263238" d="M13.4,88.1c0,4.4,3.6,8,8,8c4.4,0,8-3.6,8-8c0-4.4-3.6-8-8-8C17,80.1,13.4,83.7,13.4,88.1z M19.4,88.1
			c0-1.1,0.9-2,2-2c1.1,0,2,0.9,2,2s-0.9,2-2,2C20.3,90.1,19.4,89.2,19.4,88.1z"/>
	</g>
	<path fill="#263238" d="M133.7,54h1.9c0.6-11.5-30.9-13.5-37.4-13.8v-9.5H0v42.1h3.9v13.3H11c0.9-4.9,5.2-8.6,10.4-8.6
		c4.3,0,8,2.6,9.6,6.3c1.6-3.8,5.4-6.6,9.8-6.6c5.2,0,9.6,3.9,10.4,8.9h50.1c0.8-5,5.2-8.9,10.4-8.9c5.8,0,10.6,4.7,10.6,10.6
		c0,0.8-0.1,1.6-0.3,2.3h12.5c0,0,3.8,1,3.7-4C138,70.9,133.7,54,133.7,54z M64.1,40.2h26.4v9H64.1V40.2z M21.4,40.2h9v9h-9V40.2z
		 M9.7,40.2h9v9h-9V40.2z M113,67.6h-4.6c-0.6,0-1.2-0.5-1.2-1.2c0-0.6,0.5-1.2,1.2-1.2h4.6c0.6,0,1.2,0.5,1.2,1.2
		C114.2,67,113.6,67.6,113,67.6z M107,63.7V53.6h19.4l4.8,10.2H107z M136.3,83.4h-2.7v-3.8h2.7V83.4z M136.3,79.1h-2.7v-5.4h2.7
		V79.1z"/>
</g>
</svg>
