<?xml version="1.0" encoding="iso-8859-1"?>
<!-- Generator: Adobe Illustrator 16.0.0, SVG Export Plug-In . SVG Version: 6.00 Build 0)  -->
<!DOCTYPE svg PUBLIC "-//W3C//DTD SVG 1.1//EN" "http://www.w3.org/Graphics/SVG/1.1/DTD/svg11.dtd">
<svg version="1.1" id="Capa_1" xmlns="http://www.w3.org/2000/svg" xmlns:xlink="http://www.w3.org/1999/xlink" x="0px" y="0px"
	 width="612px" height="612px" viewBox="0 0 612 612" style="enable-background:new 0 0 612 612;" xml:space="preserve">
<g>
	<path d="M603.12,499.361c-10.425-27.615-41.271-41.534-68.887-31.098c-15.688,5.912-32.536,11.189-50.258,15.74L455.332,350.98
		l85.88-236.957c10.067-27.76-4.275-58.412-32.049-68.479c-27.733-10.053-58.396,4.3-68.452,32.063l-46.418,128.063H148.986
		c-11.069,0-20.029,8.972-20.029,20.055s8.972,20.043,20.029,20.043h50.113v49.372c-19.423,4.87-35.017,20.2-39.358,40.506
		l-31.745,148.369c-17.719-4.565-34.543-9.829-50.231-15.741c-27.603-10.409-58.464,3.497-68.887,31.099
		c-10.437,27.627,3.497,58.464,31.098,68.9C114.643,596.483,209.113,612,305.999,612c96.886,0,191.357-15.53,266.023-43.726
		C599.635,557.812,613.556,526.989,603.12,499.361z M305.999,505.088c-24.58,0-48.819-1.253-72.489-3.417l21.718-101.425h101.384
		l21.824,101.437C354.778,503.848,330.567,505.088,305.999,505.088z M362.522,293.36H239.181v-47.605h140.571L362.522,293.36z
		 M363.882,129.409v0.435c0,26.006-17.654,41.812-43.857,45.058v10.449c0,7.758-6.268,14.039-14.04,14.039
		c-7.758,0-14.025-6.281-14.025-14.039v-11.598c-13.326-2.507-26.284-7.693-37.695-15.873c-3.603-2.507-6.136-7.165-6.136-12.218
		c0-8.458,6.754-14.961,15.173-14.961c4.223,0,7.165,1.451,9.25,2.942c11.216,8.207,23.419,13.274,37.775,13.274
		c13.274,0,21.281-5.266,21.281-13.919v-0.422c0-8.219-5.08-12.416-29.74-18.762c-29.713-7.572-48.911-15.806-48.911-45.125v-0.422
		c0-22.813,15.714-38.936,38.988-43.224V14.052C291.945,6.267,298.212,0,305.97,0c7.785,0,14.04,6.281,14.04,14.052v11.083
		c11.598,1.914,22.113,5.818,31.39,11.742c3.603,2.071,7.217,6.532,7.217,12.864c0,8.432-6.78,14.976-15.199,14.976
		c-3.166,0-5.7-0.856-8.193-2.321c-10.767-6.32-20.899-9.923-31.021-9.923c-12.442,0-18.974,5.7-18.974,12.864v0.422
		c0,9.684,6.32,12.864,31.825,19.396C346.966,92.94,363.882,103.706,363.882,129.409z"/>
</g>
</svg>
