<?xml version="1.0" encoding="iso-8859-1"?>
<!-- Generator: Adobe Illustrator 18.0.0, SVG Export Plug-In . SVG Version: 6.00 Build 0)  -->
<!DOCTYPE svg PUBLIC "-//W3C//DTD SVG 1.1//EN" "http://www.w3.org/Graphics/SVG/1.1/DTD/svg11.dtd">
<svg version="1.1" id="Capa_1" xmlns="http://www.w3.org/2000/svg" xmlns:xlink="http://www.w3.org/1999/xlink" x="0px" y="0px"
	 viewBox="0 0 430 430" style="enable-background:new 0 0 430 430;" xml:space="preserve">
<g>
	<path style="stroke:#000000;stroke-width:0;stroke-linecap:round;stroke-linejoin:round;" d="M123.102,117.185l-42.916,56.139
		L4.99,200.287v15.13h32.57v14.144l-32.57,6.831v29.024H0v33.268h4.99h31.305c1.684,23.936,21.682,42.898,46.039,42.898
		c24.356,0,44.354-18.962,46.039-42.898h197.257c1.684,23.936,21.682,42.898,46.039,42.898c24.356,0,44.354-18.962,46.039-42.898
		H430v-181.5H123.102z M82.333,318.583c-12.774,0-23.167-10.393-23.167-23.167c0-12.774,10.393-23.167,23.167-23.167
		c12.774,0,23.167,10.393,23.167,23.167C105.5,308.19,95.107,318.583,82.333,318.583z M185.977,186.417h-80.446l36.694-48h43.752
		V186.417z M285.333,186.417h-74v-48h74V186.417z M329.333,179.536v-16.238h21.881v-21.881h16.238v21.881h21.881v16.238h-21.881
		v21.881h-16.238v-21.881H329.333z M371.667,318.583c-12.774,0-23.167-10.393-23.167-23.167c0-12.774,10.393-23.167,23.167-23.167
		c12.774,0,23.167,10.393,23.167,23.167C394.834,308.19,384.441,318.583,371.667,318.583z"/>
	<path style="stroke:#000000;stroke-width:0;stroke-linecap:round;stroke-linejoin:round;" d="M164.579,111.88h24.675
		c3.173,0,5.746-2.572,5.746-5.746V94.163c0-3.174-2.573-5.746-5.746-5.746h-24.675c-3.173,0-5.746,2.572-5.746,5.746v11.971
		C158.833,109.308,161.406,111.88,164.579,111.88z"/>
</g>
</svg>
