<?xml version="1.0" encoding="utf-8"?>
<!-- Generator: Adobe Illustrator 18.1.0, SVG Export Plug-In . SVG Version: 6.00 Build 0)  -->
<svg version="1.1" id="Layer_1" xmlns="http://www.w3.org/2000/svg" xmlns:xlink="http://www.w3.org/1999/xlink" x="0px" y="0px"
	 viewBox="0 0 216 216" enable-background="new 0 0 216 216" xml:space="preserve">
<g>
	<path d="M95.2,137.5c-4.7-4.8-9.2-9.4-13.7-13.9c-2.7-2.8-5.4-5.6-8.2-8.2c-1.1-1.1-1.3-1.8-0.1-3c16.3-16.1,32.5-32.3,48.8-48.4
		c11.4-11.2,22.9-22.3,34.5-33.5c2.3-2.2,4.6-4.4,7-6.4c1.9-1.6,4.2-1.9,6.7-1.3c3.1,0.6,5.4,2,6.5,5c0.8,2,1.2,4.1-0.3,6
		c-5.7,7.9-11.3,15.9-17.3,23.6c-10.8,13.9-21.7,27.7-32.7,41.5c-9.9,12.4-20,24.7-30,37C96.1,136.2,95.8,136.7,95.2,137.5z"/>
	<path d="M37.6,196.2c-0.4-0.9-0.9-1.8-1.1-2.7c-1.6-5.8-2.8-11.6-3.6-17.6c-0.8-5.7-0.4-11.3,0.5-16.8c2.2-13.3,8.8-24.3,19.9-32.2
		c3.5-2.5,7.5-4.4,11.2-6.7c1.3-0.8,2-0.4,2.9,0.5c4.1,4.1,8.2,8.2,12.3,12.3c2.7,2.7,5.2,5.5,8,8c1.6,1.4,1.8,2.8,1.3,4.6
		c-2.6,8.4-6.2,16.1-13.4,21.7c-4.2,3.3-8.9,5-14.2,5.3c-3.8,0.2-7.7,0.3-11.3,1.9c-6.1,2.7-9.3,7.7-10.8,13.9
		c-0.6,2.5-0.8,5.1-1.1,7.7C38,196.1,37.8,196.2,37.6,196.2z"/>
</g>
</svg>
