<?xml version="1.0" encoding="utf-8"?>
<!-- Generator: Adobe Illustrator 18.1.0, SVG Export Plug-In . SVG Version: 6.00 Build 0)  -->
<svg version="1.1" id="Layer_1" xmlns="http://www.w3.org/2000/svg" xmlns:xlink="http://www.w3.org/1999/xlink" x="0px" y="0px"
	 viewBox="0 0 216 216" enable-background="new 0 0 216 216" xml:space="preserve">
<g id="vskAEM_1_">
	<g>
		<path d="M91.2,8.6c4.4,1,8.7,2.3,13.1,3.1c5.7,1.1,8.7,4.3,8.9,10.1c0.8,20.5,1.5,40.9,2.3,61.4c0,0.4,0.1,0.7,0.1,1.2
			c1.9-0.4,3.8-0.7,5.5-1.3c0.7-0.2,1.3-1.2,1.6-1.9c4.1-10.8,8.1-21.7,12.1-32.5c2-5.4,5.7-7.5,11.4-6.8c1.2,0.2,2.4,0.3,3.6,0.4
			c3.1,0.3,6.3,0.5,9.4,0.9c2.8,0.3,4.6,1.8,5.2,4.6c0.8,3.8,0.1,7.2-3,9.8c-1.9,1.6-4,2.1-6.5,1.5c-4.2-1.1-8.3-2.2-12.5-3.4
			c-0.5-0.1-1.1-0.3-1.8-0.4c-3.2,8.6-6.4,17-9.6,25.6c0.5,0.1,0.8,0.3,1.2,0.4c3.4,0.7,5.9,2.7,7.2,5.8c0.5,1.3,1.2,1.6,2.4,1.5
			c1-0.1,1.9,0,2.9,0.2c2.9,0.7,5,3.1,5,6.1c0.1,5.9,0.1,11.7,0,17.6c-0.1,3.6-2.8,6.2-6.5,6.4c-0.9,0-1.8,0-2.8,0
			c0,8.2,0,16.1,0,24.3c2.7,0,5.4,0,8.1,0c5.1,0,7.7,2.7,7.7,7.8c0,12,0,24.1,0,36.1c0,5-2.6,7.6-7.6,7.7c-2.7,0-5.4,0-8.1,0
			c-0.1,1-0.2,1.8-0.3,2.6c-0.6,4.3-2.9,7.2-7,8.7c-0.3,0.1-0.7,0.3-1,0.5c-15.7,0-31.4,0-47.1,0c-3.8-1.2-6.8-3.3-7.9-7.4
			c-0.3-1.3-0.4-2.7-0.4-4c-0.1-4,0-8-0.1-12c0-0.8-0.3-1.8-0.9-2.4c-10.3-9.7-15-22-16.6-35.8c-1.1-9.3-1.1-18.5,1.6-27.6
			c2.2-7.4,5.9-13.8,13.2-17.2c1.9-0.9,3.3-1.9,4.2-4c1.3-2.8,3.8-4.4,6.9-5c1.3-0.2,2.5-0.4,4-0.7C84,75.9,78.7,61.6,73.2,47
			c-0.7,0.1-1.3,0.2-1.9,0.4c-3.8,1-7.6,1.8-11.3,3.1c-5.6,2-10.3-2.2-10.8-7.4c-0.5-5.1,2-8.3,6.9-8.4c4.4-0.1,8.7-0.8,13-1.3
			c4-0.5,8.1,2,9.7,6.1c3,7.9,5.9,15.9,8.9,23.8c3.1,8.4,6.2,16.7,9.4,25.3c3.6-0.8,7-1.6,10.7-2.5c-0.8-20-1.6-40-2.4-60.1
			c-4.7-0.3-9.2-0.5-13.8-0.8c-4.3-0.2-7-2.5-7.8-6.3c-0.7-3.4,1-9.2,4.8-10.1c0.1,0,0.2-0.2,0.3-0.3C89.7,8.6,90.5,8.6,91.2,8.6z
			 M77,110.1c-3.2,2.7-5,5.8-6,9.3c-3.4,12.6-2.6,25.1,1.5,37.4c1,3,2.6,5.8,3.9,8.7c0.2-0.1,0.3-0.1,0.5-0.2
			C77,147.1,77,128.8,77,110.1z"/>
	</g>
</g>
</svg>
