<?xml version="1.0" encoding="utf-8"?>
<!-- Generator: Adobe Illustrator 18.1.0, SVG Export Plug-In . SVG Version: 6.00 Build 0)  -->
<svg version="1.1" id="Layer_1" xmlns="http://www.w3.org/2000/svg" xmlns:xlink="http://www.w3.org/1999/xlink" x="0px" y="0px"
	 viewBox="0 0 111.7 112" enable-background="new 0 0 111.7 112" xml:space="preserve">
<g>
	<path d="M47.2,31.9c1.7,2.3,3.2,4.5,4.9,6.9c-0.6,0.4-1.1,0.7-1.7,1c-1.3,0.6-2.7,1-4,1.6c-1.4,0.7-2.8,1.5-4.4,2.4
		c0.8,1.1,1.5,2,2.2,3C63.4,33,82.5,19.4,101.7,5.6c1.4,2,2.8,3.9,4.2,5.9c-0.4,0.3-0.7,0.5-1,0.7c-10,7.2-20.1,14.4-30.1,21.6
		c-0.7,0.5-1,1.1-0.9,2c0.1,2.2,0.4,4.5,0.2,6.7c-0.4,3.6-2,6.6-5,8.8c-5,3.5-10,7.2-15,10.8c-2,1.4-4,2.8-5.9,4
		c0.4,1.5,0.8,2.8,1,4.1c0.3,2.1-0.4,4-1.9,5.5C46,76.8,45,77.9,43.9,79c-0.4,0.4-0.5,0.7-0.3,1.3c0.7,2,0.6,2.4-1.1,3.7
		c-2.4,2-2.8,1.9-4.2-0.9c-0.3-0.6-0.6-1.3-0.9-1.9c-1-1.6-2.5-1.8-3.9-0.6c-1.3,1.1-1.8,2.7-2.1,4.3c-0.4,1.9-0.6,3.9-1,5.9
		c-0.5,3.2-2,5.9-4.4,8c-2.6,2.3-5.1,4.6-7.7,6.9c-1.5,1.3-2.8,1-3.7-0.7C11.6,100.1,8.8,95,6,90c-0.6-1.1-0.5-2,0.3-2.8
		c0.5-0.5,1-1.1,1.6-1.5c5.5-4.3,10.9-8.7,16.4-12.9c3.3-2.6,4.5-6,4.2-10c-0.3-3.2,0.7-5.6,3.5-7.3c0.9-0.5,1.7-1.2,2.7-1.9
		c-0.7-1-1.3-1.9-2-2.8c-3.4,1.6-4.9,5.2-7.8,7.5c-1.6-2.3-3.2-4.5-4.9-6.8c0.5-0.3,1-0.6,1.5-0.9c0.2-0.1,0.4-0.2,0.6-0.2
		c3.4-1.1,6.5-2.8,9.3-5c2.3-1.8,4.7-3.5,7.1-5.1c3-1.9,5.2-4.4,7.4-7.1C46.2,32.7,46.7,32.3,47.2,31.9z M33.8,49.9
		c0.7,1,1.4,1.9,2,2.9c2.4-1.7,4.8-3.4,7.2-5.1c-0.7-1-1.3-1.9-2-2.9C38.5,46.5,36.2,48.2,33.8,49.9z M45.1,68.4
		c-0.9,0.7-1.7,1.4-2.5,2c-2,1.7-2.1,2.9-0.7,5.1C44.5,73.8,45.7,71.1,45.1,68.4z"/>
</g>
<circle fill-rule="evenodd" clip-rule="evenodd" cx="259.8" cy="81.1" r="22.4"/>
</svg>
