<?xml version="1.0" encoding="utf-8"?>
<!-- Generator: Adobe Illustrator 18.1.0, SVG Export Plug-In . SVG Version: 6.00 Build 0)  -->
<svg version="1.1" id="Layer_1" xmlns="http://www.w3.org/2000/svg" xmlns:xlink="http://www.w3.org/1999/xlink" x="0px" y="0px"
	 viewBox="0 0 216 216" enable-background="new 0 0 216 216" xml:space="preserve">
<g>
	<path d="M9.9,165c0-30.4,0-60.9,0-91.3c0.1-0.2,0.2-0.4,0.3-0.7c2.2-9.9,9.7-15.8,19.7-15.8c7.2,0,14.3,0,21.5,0
		c3.7,0,7-2.3,8.2-5.7c1.9-5.5,3.7-11.1,5.6-16.6c0.3-0.9,0.7-1.8,1.2-2.6c1.2-2,3.3-2.8,5.2-3.8c22.6,0,45.2,0,67.8,0
		c2.7,1.2,5.3,2.7,6.3,5.8c1.8,5.4,3.6,10.8,5.4,16.2c1.5,4.5,4.5,6.7,9.1,6.7c7.6,0,15.3-0.2,22.9,0.1c6.6,0.2,11.8,3.5,15.2,9.3
		c1.3,2.2,1.9,4.7,2.9,7.1c0,30.4,0,60.9,0,91.3c-0.1,0.3-0.3,0.6-0.3,1c-1.4,5.6-4.3,10.1-9.4,12.8c-2.1,1.1-4.5,1.8-6.7,2.7
		c-52.7,0-105.5,0-158.2,0c-0.3-0.1-0.5-0.2-0.8-0.3c-5.7-1.3-10.2-4.2-13-9.4C11.5,169.6,10.8,167.3,9.9,165z M105.6,66.8
		C79.3,66.6,58,87.9,57.7,114.4c-0.2,26.2,21.4,47.9,47.8,48c26.3,0,47.7-21.3,47.8-47.8C153.4,88.4,132,66.9,105.6,66.8z
		 M168.7,83.1c0,3.7,3,6.6,6.7,6.6c3.7,0,6.7-3,6.6-6.7c0-3.7-3.1-6.7-6.8-6.6C171.6,76.3,168.6,79.3,168.7,83.1z"/>
	<path d="M105.6,143.2c-15.8,0.1-28.7-12.8-28.7-28.5c0-15.8,12.7-28.6,28.5-28.8c15.8-0.1,28.8,12.8,28.8,28.6
		C134.2,130.3,121.4,143.1,105.6,143.2z"/>
</g>
</svg>
