<?xml version="1.0" encoding="utf-8"?>
<!-- Generator: Adobe Illustrator 18.1.0, SVG Export Plug-In . SVG Version: 6.00 Build 0)  -->
<svg version="1.1" id="Layer_1" xmlns="http://www.w3.org/2000/svg" xmlns:xlink="http://www.w3.org/1999/xlink" x="0px" y="0px"
	 viewBox="0 0 216 216" enable-background="new 0 0 216 216" xml:space="preserve">
<g id="_x35_OExJv_1_">
	<g>
		<path d="M100.2,203.1c-4.5,0-8.9,0-13.3,0c-0.4,0-1-0.6-1.2-1c-1.3-4.3-3.6-6.2-7.3-6.2c-3.6,0.1-6.1,2.3-7.1,6.5
			c0,0.2-0.1,0.4-0.2,0.7c-4.7,0-9.4,0-14.1,0c-0.2-0.6-0.3-1.2-0.5-1.8c-1-3.3-3.8-5.4-7.2-5.3c-3.3,0.1-6.2,2.3-6.8,5.5
			c-0.3,1.4-0.8,1.8-2.1,1.7c-4.2-0.1-8.3,0-12.6,0c0-5,0-9.7,0-14.4c4.8-1.2,7.2-3.7,7.2-7.5c0-3.8-2.3-6.2-7.2-7.5
			c0-4.6,0-9.3,0-14.1c4.3-0.8,7.4-3.1,7.2-7.9c-0.2-4.3-3.1-6.3-7.2-7c0-4.7,0-9.4,0-14.2c0.6-0.2,1.3-0.3,1.9-0.5
			c3.3-1,5.4-3.9,5.3-7.2c-0.1-3.2-2.4-6.2-5.6-6.8c-1.6-0.3-1.8-1-1.7-2.3c0.1-4.1,0-8.2,0-12.2c5.1-1.4,7.3-3.8,7.3-7.6
			c0-3.8-2.3-6.2-7.2-7.5c0-4.6,0-9.3,0-14.1c4.3-0.8,7.3-3,7.2-7.7c-0.1-4.4-3-6.5-7.2-7.2c0-4.7,0-9.4,0-14.2
			c2.5-0.4,4.9-1.2,6-3.6c0.7-1.4,1.1-3,1.1-4.5c-0.1-3.5-2.7-5.9-7.1-6.7c0-4.7,0-9.4,0-14.4c1.9,0,3.9,0,5.8,0
			c2.4,0,4.8-0.1,7.2,0.1c0.5,0,1.3,0.6,1.5,1.1c1.1,3.9,3.6,6.1,7.3,6.1c3.6,0,6.2-2.3,7.2-6.2c0.1-0.3,0.2-0.6,0.2-1
			c4.7,0,9.4,0,14.1,0c0.2,0.7,0.3,1.3,0.5,2c0.9,3.2,3.8,5.2,7.1,5.2c3.3,0,6.2-2.2,6.9-5.4c0.3-1.5,0.9-1.9,2.3-1.8
			c4.1,0.1,8.2,0,12.3,0c1.5,5.2,3.8,7.3,7.7,7.2c3.7-0.1,6-2.3,7.3-7.2c4.4,0,8.9,0,13.3,0c0.4,0,0.9,0.5,1.1,0.9
			c1.5,4.5,3.7,6.4,7.5,6.3c3.6-0.1,5.8-2.2,7.1-6.8c0-0.1,0.1-0.2,0.3-0.5c0.5,0,1.1,0,1.7,0c4,0,8.1,0,12.2,0
			c0.2,0.7,0.4,1.4,0.5,2c1,3.2,3.7,5.2,7.1,5.2c3.3,0,6.2-2.2,6.9-5.4c0.3-1.5,0.8-1.9,2.3-1.8c4.1,0.1,8.2,0,12.5,0
			c0,4.9,0,9.6,0,14.3c-5.1,1.5-7.3,4-7.2,7.9c0.2,3.7,2.6,6.1,7.2,7.1c0,4.7,0,9.4,0,14.1c-5.5,2-7.4,4.1-7.2,7.9
			c0.2,3.6,2.3,5.7,7.2,7.2c0,4.7,0,9.4,0,14.1c-5.1,1.5-7.2,3.8-7.2,7.6c0.1,3.7,2.4,6.1,7.2,7.3c0,4.7,0,9.4,0,14.1
			c-5.3,1.8-7.3,4.1-7.2,7.9c0.2,3.7,2.5,6,7.2,7.1c0,4.7,0,9.4,0,14.1c-5.2,1.8-7.3,4-7.2,7.7c0.1,3.7,2.2,5.8,7.2,7.4
			c0,4.7,0,9.4,0,14c-5.1,1.5-7.4,4-7.2,7.9c0.2,3.7,2.6,6.1,7.2,7.1c0,4.7,0,9.4,0,14.2c-4.8,0-9.5,0-14.2,0
			c-2.1-5.5-4.2-7.3-8.1-7.1c-3.5,0.2-5.7,2.4-6.9,7.1c-4.7,0-9.4,0-14.1,0c-0.2-0.7-0.3-1.4-0.5-2c-0.9-3.1-3.8-5.2-7.2-5.1
			c-3.2,0.1-6.2,2.2-6.7,5.3c-0.3,1.8-1.1,2-2.6,1.9c-4-0.1-8,0-12.1,0c-0.4-2.6-1.3-4.9-3.6-6.1c-1.3-0.7-3-1.1-4.5-1
			C103.5,196.1,101.2,198.6,100.2,203.1z M42.4,28.8c0,53.4,0,106.5,0,159.6c43.6,0,87.1,0,130.5,0c0-53.3,0-106.4,0-159.6
			C129.3,28.8,85.9,28.8,42.4,28.8z"/>
		<path d="M164.6,181.3c-38.1,0-75.7,0-113.7,0c0.3-1.5,0.6-2.9,1-4.3c2.6-8.6,7.4-15.2,16.5-17.9c3.6-1.1,7.1-2.5,10.7-3.5
			c7.3-2.2,10.6-7.2,11.1-14.6c0-0.5,0.1-1,0.1-1.4c0.4-2.3-0.1-4.2-1.6-6.2c-3.9-4.9-6.2-10.6-8.1-16.5c-0.2-0.7-0.6-1.6-1.2-2
			c-4.4-3-5.6-7.3-5.4-12.4c0.2-3.5,0-7.1-0.1-10.6c-0.1-4.1-0.7-8.3-0.4-12.3c0.7-8,5-14.1,12.1-17.8c9.5-5,19.3-6,29-0.4
			c0.5,0.3,1.5,0.3,2.1,0.1c4-1.5,7.9-1.2,11.8,0.5c8.6,3.6,14,12.1,13.5,21.3c-0.2,5.1-0.7,10.3-1,15.4c-0.1,1.4,0.3,2.8,0.3,4.3
			c0.3,4.8-1.1,8.9-5.2,11.8c-0.6,0.5-1.1,1.3-1.4,2.1c-2.2,6.5-4.8,12.8-9.4,18.2c-0.3,0.4-0.6,1-0.5,1.5c0.5,3.6,0.8,7.2,1.6,10.7
			c0.6,2.7,2.3,4.9,4.9,6c3.2,1.4,6.4,2.6,9.7,3.9c3.3,1.2,6.6,2.2,9.8,3.7C159.4,164.7,162.4,172.5,164.6,181.3z"/>
		<path d="M147.7,46.5c0-1-0.1-2.3,0-3.6c0.2-3.7,2.7-6.4,6.4-6.9c1.4-0.2,2.9-0.2,4.3-0.1c4.5,0.2,7.3,3.2,7.4,7.7
			c0,2.2,0.1,4.4,0,6.6c-0.1,4.5-3,7.3-7.5,7.6C150.9,58.2,146.9,55.9,147.7,46.5z M158.4,43.3c-1.3,0-2.3,0-3.4,0
			c0,2.4,0,4.7,0,7.1c1.2,0,2.2,0,3.4,0C158.4,48,158.4,45.7,158.4,43.3z"/>
		<path d="M144,57.6c-2.5,0-4.7,0-7.2,0c0-4.7,0-9.4,0-14.3c-1.3-0.1-2.4-0.2-3.6-0.3c0-2.3,0-4.6,0-7c2.7,0,5.4-0.2,8,0.1
			c1.8,0.1,2.8,1.6,2.8,3.3C144,45.4,144,51.4,144,57.6z"/>
	</g>
</g>
</svg>
