<svg height="464pt" viewBox="0 0 464 464.008" width="464pt" xmlns="http://www.w3.org/2000/svg"><path d="m448.003906 144h-16v96h-16v-80h-16v80h-16v-56h-16v56h-16v-32h-16v32h-16v-16h-16v16h-16v16h176v-16h-16zm0 0"/><path d="m400.003906 128c35.289063 0 64-28.710938 64-64s-28.710937-64-64-64c-35.289062 0-64 28.710938-64 64s28.710938 64 64 64zm0-56c-13.230468 0-24-10.769531-24-24 0-10.414062 6.710938-19.214844 16-22.527344v-9.472656h16v9.472656c9.289063 3.3125 16 12.113282 16 22.527344h-16c0-4.414062-3.582031-8-8-8-4.414062 0-8 3.585938-8 8s3.585938 8 8 8c13.230469 0 24 10.769531 24 24 0 10.414062-6.710937 19.214844-16 22.527344v9.472656h-16v-9.472656c-9.289062-3.3125-16-12.113282-16-22.527344h16c0 4.414062 3.585938 8 8 8 4.417969 0 8-3.585938 8-8s-3.582031-8-8-8zm0 0"/><path d="m259.53125 312h-11.527344v16h21.375zm0 0"/><path d="m232.003906 428.535156v-188.535156h-16v187.015625c5.328125.578125 10.664063 1.046875 16 1.519531zm0 0"/><path d="m120.003906 104c17.648438 0 32-14.351562 32-32v-16c0-17.648438-14.351562-32-32-32-17.648437 0-32 14.351562-32 32v16c0 17.648438 14.351563 32 32 32zm0 0"/><path d="m140.660156 167.257812c-1.449218-4.335937-5.496094-7.25-10.0625-7.25-5.839844 0-10.59375 4.753907-10.59375 10.59375v1.582032c0 1.457031.289063 2.855468.847656 4.167968l20.425782 47.648438h113.359375c-3.304688-9.3125-12.199219-16-22.632813-16h-77.769531zm0 0"/><path d="m379.835938 389.726562-32.734376-6.542968-66.746093-103.832032c-2.960938-4.597656-7.992188-7.351562-13.464844-7.351562h-18.886719v24h20.472656l64 104h46.34375c2.855469 0 5.183594-2.328125 5.183594-5.183594 0-2.472656-1.75-4.601562-4.167968-5.089844zm0 0"/><path d="m360.003906 448h-52.671875c-87.945312 0-175.105469-13.304688-259.0625-39.535156-1-.304688-2.015625-.464844-3.042969-.464844h-3.046874c-5.609376 0-10.175782 4.574219-10.175782 10.183594 0 4.550781 3.0625 8.59375 7.449219 9.808594l17.671875 4.902343c74.296875 20.640625 151.070312 31.113281 228.175781 31.113281h74.703125c4.417969 0 8-3.582031 8-8 0-4.414062-3.582031-8.007812-8-8.007812zm0 0"/><path d="m109.117188 408.542969 23.472656-64.542969h-23.160156l-23.488282 58.71875c7.695313 2.074219 15.429688 3.976562 23.175782 5.824219zm0 0"/><path d="m200.003906 296v-56h-69.273437l-24.574219-57.34375c-1.425781-3.3125-2.152344-6.839844-2.152344-10.472656v-1.582032c0-14.664062 11.929688-26.59375 26.59375-26.59375 11.46875 0 21.605469 7.3125 25.230469 18.183594l9.9375 29.816406h14.101563l-5.847657-13.664062c-8.464843-19.75-20.472656-37.480469-35.671875-52.6875l-2.34375-2.34375v-6.113281c-5.015625 1.785156-10.382812 2.800781-16 2.800781-5.617187 0-10.984375-1.023438-16-2.800781v13.015625l-22.726562 37.882812 52.109375 127.902344zm0 0"/><path d="m32.003906 80c0 8.835938-7.164062 16-16 16-8.835937 0-15.99999975-7.164062-15.99999975-16s7.16406275-16 15.99999975-16c8.835938 0 16 7.164062 16 16zm0 0"/><path d="m200.003906 328v-16h-77.382812l-84.96875-208.574219c-4.816406 4.453125-10.992188 7.367188-17.839844 8.191407l89.535156 216.382812zm0 0"/></svg>