<?xml version="1.0" encoding="utf-8"?>
<!-- Generator: Adobe Illustrator 18.1.0, SVG Export Plug-In . SVG Version: 6.00 Build 0)  -->
<svg version="1.1" id="Layer_1" xmlns="http://www.w3.org/2000/svg" xmlns:xlink="http://www.w3.org/1999/xlink" x="0px" y="0px"
	 viewBox="0 0 164 164" enable-background="new 0 0 164 164" xml:space="preserve">
<g>
	<path d="M85.3,7.3C88.1,7.7,91,8,93.9,8.5c7.2,1.2,14,3.5,20.2,7.4c4,2.5,7.5,5.6,10.4,9.3c4.6,6.1,6.7,13,7.1,20.5
		c0.3,6.7-1.2,13-4.7,18.8c-2.3,3.7-5.1,6.9-8.2,9.8c-5.3,5-11.4,9-17.3,13.2c-4.7,3.4-7.8,7.7-9.7,13.2c-0.7,2.2-2,4.3-3.3,6.1
		c-1.7,2.3-4.4,3.1-7.2,3.4c-3.2,0.4-6.4,0.2-9.2-1.6c-4.5-2.9-6.3-7.1-6.2-12.3c0.1-6.2,2.7-11.3,6.7-15.9
		C77,75.3,82.7,71.3,88.1,67c4-3.2,7.9-6.6,10.6-11c3.9-6.3,2.8-16.7-3.3-21.5c-2.6-2-5.5-3.2-8.7-3.7c-4.5-0.8-9-0.6-13.3,0.8
		c-5,1.6-8.2,5.2-10.5,9.6c-1.3,2.5-2.5,5.1-3.8,7.6c-1.2,2.4-2.7,4.5-4.9,6c-3.4,2.3-7.2,2.6-11.1,1.8c-2.4-0.5-4.5-1.4-6.3-3.1
		c-2.6-2.5-3.6-5.7-3.5-9.2c0.1-5.9,2-11.2,5.3-16.1C44.1,20,51.9,14.7,61,11.1c4.9-2,10-3,15.3-3.6c0.2,0,0.5-0.1,0.7-0.2
		C79.7,7.3,82.5,7.3,85.3,7.3z"/>
	<path d="M77.2,156.7c-2.2-0.8-4.5-1.4-6.5-2.6c-7.3-4.1-9.9-13.9-6.1-21.4c4.1-8,13.6-11.3,21.8-7.6c10.3,4.7,12.8,18.9,4.6,26.7
		c-2.5,2.4-5.4,3.9-8.7,4.6c-0.3,0.1-0.5,0.2-0.8,0.3C80,156.7,78.6,156.7,77.2,156.7z"/>
</g>
</svg>
