<?xml version="1.0" encoding="utf-8"?>
<!-- Generator: Adobe Illustrator 18.1.0, SVG Export Plug-In . SVG Version: 6.00 Build 0)  -->
<svg version="1.1" id="Layer_1" xmlns="http://www.w3.org/2000/svg" xmlns:xlink="http://www.w3.org/1999/xlink" x="0px" y="0px"
	 viewBox="0 0 140 140" enable-background="new 0 0 140 140" xml:space="preserve">
<g>
	<g>
		<g>
			<g>
				<path fill="#263238" d="M23.5,55.3c-0.6,0-1.2-0.9-1.7-0.8c-0.6,0-1,1-1.6,1.1c-0.6,0.1-1.3-0.7-1.8-0.6
					c-0.6,0.1-0.9,1.1-1.4,1.3c-0.5,0.2-1.4-0.5-1.9-0.3c-0.5,0.2-0.7,1.3-1.2,1.5c-0.5,0.2-1.4-0.3-1.9,0c-0.5,0.3-0.5,1.3-0.9,1.7
					c-0.5,0.3-1.5-0.1-1.9,0.3c-0.4,0.4-0.3,1.4-0.7,1.8C8,61.5,7,61.3,6.6,61.7c-0.4,0.4-0.1,1.4-0.4,1.9c-0.4,0.4-1.4,0.4-1.7,0.8
					c-0.3,0.5,0.1,1.4-0.1,1.9C4,66.8,3,66.9,2.7,67.4c-0.2,0.5,0.4,1.4,0.2,1.9c-0.2,0.5-1.2,0.8-1.4,1.3c-0.2,0.5,0.6,1.3,0.4,1.9
					c-0.1,0.5-1.1,0.9-1.2,1.5c-0.1,0.6,0.8,1.2,0.7,1.8c0,0.6-1,1.1-1,1.7c0,0.6,0.9,1.1,1,1.7c0,0.6-0.8,1.2-0.7,1.8
					c0.1,0.6,1.1,0.9,1.2,1.5c0.1,0.6-0.6,1.3-0.4,1.9c0.2,0.5,1.2,0.8,1.4,1.3c0.2,0.5-0.4,1.4-0.2,1.9C3,87.8,4,87.9,4.3,88.4
					c0.3,0.5-0.2,1.4,0.1,1.9c0.3,0.5,1.4,0.4,1.7,0.8c0.4,0.4,0,1.5,0.4,1.9C7,93.4,8,93.2,8.4,93.5c0.4,0.4,0.2,1.4,0.7,1.8
					c0.4,0.4,1.4,0,1.9,0.3c0.5,0.3,0.5,1.4,0.9,1.7c0.5,0.3,1.4-0.3,1.9,0c0.5,0.2,0.7,1.3,1.2,1.5c0.5,0.2,1.3-0.5,1.9-0.3
					c0.5,0.2,0.8,1.2,1.4,1.3c0.5,0.1,1.3-0.7,1.8-0.6c0.6,0.1,1,1,1.6,1.1c0.6,0,1.2-0.8,1.7-0.8c0.6,0,1.2,0.9,1.7,0.8
					c0.6,0,1-1,1.6-1.1c0.6-0.1,1.3,0.7,1.8,0.6c0.6-0.1,0.9-1.1,1.4-1.3c0.5-0.2,1.4,0.5,1.9,0.3c0.5-0.2,0.7-1.3,1.2-1.5
					c0.5-0.2,1.4,0.3,1.9,0c0.5-0.3,0.5-1.3,0.9-1.7c0.5-0.3,1.5,0.1,1.9-0.3c0.4-0.4,0.3-1.4,0.7-1.8c0.4-0.4,1.4-0.1,1.8-0.6
					c0.4-0.4,0.1-1.4,0.4-1.9c0.3-0.4,1.4-0.4,1.7-0.8c0.3-0.5-0.1-1.4,0.1-1.9c0.3-0.5,1.3-0.6,1.6-1.1c0.2-0.5-0.4-1.4-0.2-1.9
					c0.2-0.5,1.2-0.8,1.4-1.3c0.2-0.5-0.6-1.3-0.4-1.9c0.1-0.5,1.1-0.9,1.2-1.5c0.1-0.6-0.8-1.2-0.7-1.8c0-0.6,1-1.1,1-1.7
					c0-0.6-0.9-1.1-1-1.7c0-0.6,0.8-1.2,0.7-1.8c-0.1-0.6-1.1-0.9-1.2-1.5c-0.1-0.6,0.6-1.3,0.4-1.9c-0.2-0.5-1.2-0.8-1.4-1.3
					c-0.2-0.5,0.4-1.4,0.2-1.9c-0.2-0.5-1.3-0.6-1.6-1.1c-0.3-0.5,0.2-1.4-0.1-1.9c-0.3-0.5-1.4-0.4-1.7-0.8c-0.4-0.4,0-1.5-0.4-1.9
					c-0.4-0.4-1.4-0.2-1.8-0.6c-0.4-0.4-0.2-1.4-0.7-1.8c-0.4-0.3-1.4,0-1.9-0.3c-0.5-0.3-0.5-1.4-0.9-1.7c-0.5-0.3-1.4,0.3-1.9,0
					c-0.5-0.2-0.7-1.3-1.2-1.5c-0.5-0.2-1.3,0.5-1.9,0.3c-0.5-0.2-0.8-1.2-1.4-1.3c-0.5-0.1-1.3,0.7-1.8,0.6c-0.6-0.1-1-1-1.6-1.1
					C24.6,54.4,24,55.3,23.5,55.3z M23.5,84.9c-0.2,0-0.3-0.9-0.5-0.9c-0.2,0-0.5,0.9-0.6,0.8c-0.2,0-0.2-0.9-0.4-1
					c-0.2,0-0.6,0.8-0.7,0.7c-0.2-0.1,0-1-0.2-1c-0.2-0.1-0.7,0.7-0.8,0.6c-0.2-0.1,0.1-1,0-1c-0.2-0.1-0.8,0.6-0.9,0.5
					c-0.1-0.1,0.2-0.9,0.1-1c-0.1-0.1-0.9,0.5-1,0.3c-0.1-0.1,0.4-0.9,0.3-1c-0.1-0.1-0.9,0.3-1,0.2c-0.1-0.1,0.5-0.8,0.4-1
					c-0.1-0.1-1,0.2-1,0c-0.1-0.2,0.6-0.7,0.5-0.9c-0.1-0.2-1,0-1-0.1c-0.1-0.2,0.7-0.6,0.7-0.8c-0.1-0.2-1-0.1-1-0.3
					c0-0.2,0.8-0.5,0.8-0.7c0-0.2-0.9-0.2-1-0.4c0-0.2,0.9-0.4,0.9-0.6c0-0.2-0.9-0.4-0.9-0.6c0-0.2,0.9-0.3,1-0.4
					c0-0.2-0.8-0.5-0.8-0.7c0-0.2,1-0.1,1-0.3c0.1-0.2-0.7-0.6-0.7-0.8c0.1-0.2,1,0,1-0.1c0.1-0.2-0.6-0.7-0.5-0.9
					c0.1-0.2,0.9,0.2,1,0c0.1-0.1-0.5-0.8-0.4-1c0.1-0.1,0.9,0.3,1,0.2c0.1-0.1-0.4-0.9-0.3-1c0.1-0.1,0.9,0.4,1,0.3
					c0.1-0.1-0.3-0.9-0.1-1c0.1-0.1,0.8,0.6,0.9,0.5c0.2-0.1-0.1-1,0-1c0.2-0.1,0.7,0.7,0.8,0.6c0.2-0.1,0-1,0.2-1
					c0.2-0.1,0.6,0.8,0.7,0.7c0.2,0,0.2-1,0.4-1c0.2,0,0.4,0.9,0.6,0.8c0.2,0,0.3-0.9,0.5-0.9c0.2,0,0.3,0.9,0.5,0.9
					c0.2,0,0.5-0.9,0.6-0.8c0.2,0,0.2,0.9,0.4,1c0.2,0,0.6-0.8,0.7-0.7c0.2,0.1,0,1,0.2,1c0.2,0.1,0.7-0.7,0.8-0.6
					c0.2,0.1-0.1,1,0,1c0.2,0.1,0.8-0.6,0.9-0.5c0.1,0.1-0.2,0.9-0.1,1c0.1,0.1,0.9-0.5,1-0.3c0.1,0.1-0.4,0.9-0.3,1
					c0.1,0.1,0.9-0.3,1-0.2c0.1,0.1-0.5,0.8-0.4,1c0.1,0.1,1-0.2,1,0c0.1,0.2-0.6,0.7-0.5,0.9c0.1,0.2,1,0,1,0.1
					c0.1,0.2-0.7,0.6-0.7,0.8c0.1,0.2,1,0.1,1,0.3c0,0.2-0.8,0.5-0.8,0.7c0,0.2,0.9,0.2,1,0.4c0,0.2-0.9,0.4-0.9,0.6
					c0,0.2,0.9,0.4,0.9,0.6c0,0.2-0.9,0.3-1,0.4c0,0.2,0.8,0.5,0.8,0.7c0,0.2-1,0.1-1,0.3c-0.1,0.2,0.7,0.6,0.7,0.8
					c-0.1,0.2-1,0-1,0.1c-0.1,0.2,0.6,0.7,0.5,0.9c-0.1,0.2-0.9-0.2-1,0c-0.1,0.1,0.5,0.8,0.4,1c-0.1,0.1-0.9-0.3-1-0.2
					c-0.1,0.1,0.4,0.9,0.3,1c-0.1,0.1-0.8-0.4-1-0.3c-0.1,0.1,0.3,0.9,0.1,1c-0.1,0.1-0.8-0.6-0.9-0.5c-0.2,0.1,0.1,1,0,1
					c-0.2,0.1-0.7-0.7-0.8-0.6c-0.2,0.1,0,1-0.2,1c-0.2,0.1-0.6-0.8-0.7-0.7c-0.2,0-0.2,1-0.4,1c-0.2,0-0.4-0.9-0.6-0.8
					C23.8,84,23.6,84.9,23.5,84.9z"/>
				<path fill="#263238" d="M115.6,55.3c-0.6,0-1.2-0.9-1.7-0.8c-0.6,0-1,1-1.6,1.1c-0.6,0.1-1.3-0.7-1.8-0.6
					c-0.6,0.1-0.9,1.1-1.4,1.3c-0.5,0.2-1.4-0.5-1.9-0.3c-0.5,0.2-0.7,1.3-1.2,1.5c-0.5,0.2-1.4-0.3-1.9,0c-0.5,0.3-0.5,1.3-0.9,1.7
					c-0.5,0.3-1.5-0.1-1.9,0.3c-0.4,0.4-0.3,1.4-0.7,1.8c-0.4,0.4-1.4,0.1-1.8,0.6c-0.4,0.4-0.1,1.4-0.4,1.9
					c-0.4,0.4-1.4,0.4-1.7,0.8c-0.3,0.5,0.1,1.4-0.1,1.9c-0.3,0.5-1.3,0.6-1.6,1.1c-0.2,0.5,0.4,1.4,0.2,1.9
					c-0.2,0.5-1.2,0.8-1.4,1.3c-0.2,0.5,0.6,1.3,0.4,1.9c-0.1,0.5-1.1,0.9-1.2,1.5c-0.1,0.6,0.8,1.2,0.7,1.8c0,0.6-1,1.1-1,1.7
					c0,0.6,0.9,1.1,1,1.7c0,0.6-0.8,1.2-0.7,1.8c0.1,0.6,1.1,0.9,1.2,1.5c0.1,0.5-0.6,1.3-0.4,1.9c0.2,0.5,1.2,0.8,1.4,1.3
					c0.2,0.5-0.4,1.4-0.2,1.9c0.2,0.5,1.3,0.6,1.6,1.1c0.3,0.5-0.2,1.4,0.1,1.9c0.3,0.5,1.4,0.4,1.7,0.8c0.4,0.4,0,1.5,0.4,1.9
					c0.4,0.4,1.4,0.2,1.8,0.6c0.4,0.4,0.2,1.4,0.7,1.8c0.4,0.3,1.4,0,1.9,0.3c0.5,0.3,0.5,1.4,0.9,1.7c0.5,0.3,1.4-0.3,1.9,0
					c0.5,0.2,0.7,1.3,1.2,1.5c0.5,0.2,1.3-0.5,1.9-0.3c0.5,0.2,0.8,1.2,1.4,1.3c0.5,0.1,1.3-0.7,1.8-0.6c0.6,0.1,1,1,1.6,1.1
					c0.6,0,1.2-0.8,1.7-0.8c0.6,0,1.2,0.9,1.7,0.8c0.6,0,1-1,1.6-1.1c0.6-0.1,1.3,0.7,1.8,0.6c0.5-0.1,0.9-1.1,1.4-1.3
					c0.5-0.2,1.4,0.5,1.9,0.3c0.5-0.2,0.7-1.3,1.2-1.5c0.5-0.2,1.4,0.3,1.9,0c0.5-0.3,0.5-1.3,0.9-1.7c0.5-0.3,1.5,0.1,1.9-0.3
					c0.4-0.4,0.3-1.4,0.7-1.8c0.4-0.4,1.4-0.1,1.8-0.6c0.4-0.4,0.1-1.4,0.4-1.9c0.4-0.4,1.4-0.4,1.7-0.8c0.3-0.5-0.1-1.4,0.1-1.9
					c0.3-0.5,1.3-0.6,1.6-1.1c0.2-0.5-0.4-1.4-0.1-1.9c0.2-0.5,1.2-0.8,1.4-1.3c0.2-0.5-0.6-1.3-0.4-1.9c0.1-0.5,1.1-0.9,1.2-1.5
					c0.1-0.6-0.8-1.2-0.7-1.8c0-0.6,1-1.1,1-1.7c0-0.6-0.9-1.1-1-1.7c0-0.6,0.8-1.2,0.7-1.8c-0.1-0.6-1.1-0.9-1.2-1.5
					c-0.1-0.6,0.6-1.3,0.4-1.9c-0.2-0.5-1.2-0.8-1.4-1.3c-0.2-0.5,0.4-1.4,0.2-1.9c-0.2-0.5-1.3-0.6-1.6-1.1
					c-0.3-0.5,0.2-1.4-0.1-1.9c-0.3-0.5-1.4-0.4-1.7-0.8c-0.4-0.4,0-1.5-0.4-1.9c-0.4-0.4-1.4-0.2-1.8-0.6c-0.4-0.4-0.2-1.4-0.7-1.8
					c-0.4-0.4-1.4,0-1.9-0.3c-0.5-0.3-0.5-1.4-0.9-1.7c-0.5-0.3-1.4,0.3-1.9,0c-0.5-0.2-0.7-1.3-1.2-1.5c-0.5-0.2-1.3,0.5-1.9,0.3
					c-0.5-0.2-0.8-1.2-1.4-1.3c-0.5-0.1-1.3,0.7-1.8,0.6c-0.6-0.1-1-1-1.6-1.1C116.8,54.4,116.2,55.3,115.6,55.3z M115.6,84.9
					c-0.2,0-0.3-0.9-0.5-0.9c-0.2,0-0.5,0.9-0.6,0.8c-0.2,0-0.2-0.9-0.4-1c-0.2,0-0.6,0.8-0.7,0.7c-0.2-0.1,0-1-0.2-1
					c-0.2-0.1-0.7,0.7-0.8,0.6c-0.2-0.1,0.1-1,0-1c-0.2-0.1-0.8,0.6-0.9,0.5c-0.1-0.1,0.2-0.9,0.1-1c-0.1-0.1-0.9,0.5-1,0.3
					c-0.1-0.1,0.4-0.9,0.3-1c-0.1-0.1-0.9,0.3-1,0.2c-0.1-0.1,0.5-0.8,0.4-1c-0.1-0.1-1,0.2-1,0c-0.1-0.2,0.6-0.7,0.5-0.9
					c-0.1-0.2-1,0-1-0.1c-0.1-0.2,0.7-0.6,0.7-0.8c-0.1-0.2-1-0.1-1-0.3c0-0.2,0.8-0.5,0.8-0.7c0-0.2-0.9-0.2-1-0.4
					c0-0.2,0.9-0.4,0.9-0.6c0-0.2-0.9-0.4-0.9-0.6c0-0.2,0.9-0.3,1-0.4c0-0.2-0.8-0.5-0.8-0.7c0-0.2,1-0.1,1-0.3
					c0.1-0.2-0.7-0.6-0.7-0.8c0.1-0.2,1,0,1-0.1c0.1-0.2-0.6-0.7-0.5-0.9c0.1-0.2,0.9,0.2,1,0c0.1-0.1-0.5-0.8-0.4-1
					c0.1-0.1,0.9,0.3,1,0.2c0.1-0.1-0.4-0.9-0.3-1c0.1-0.1,0.8,0.4,1,0.3c0.1-0.1-0.3-0.9-0.1-1c0.1-0.1,0.8,0.6,0.9,0.5
					c0.2-0.1-0.1-1,0-1c0.2-0.1,0.7,0.7,0.8,0.6c0.2-0.1,0-1,0.2-1c0.2-0.1,0.6,0.8,0.7,0.7c0.2,0,0.2-1,0.4-1
					c0.2,0,0.4,0.9,0.6,0.8c0.2,0,0.3-0.9,0.5-0.9c0.2,0,0.3,0.9,0.5,0.9c0.2,0,0.5-0.9,0.6-0.8c0.2,0,0.2,0.9,0.4,1
					c0.2,0,0.6-0.8,0.7-0.7c0.2,0.1,0,1,0.2,1c0.2,0.1,0.7-0.7,0.8-0.6c0.2,0.1-0.1,1,0,1c0.2,0.1,0.8-0.6,0.9-0.5
					c0.1,0.1-0.2,0.9-0.1,1c0.1,0.1,0.9-0.5,1-0.3c0.1,0.1-0.4,0.9-0.3,1c0.1,0.1,0.9-0.3,1-0.2c0.1,0.1-0.5,0.8-0.4,1
					c0.1,0.1,1-0.2,1,0c0.1,0.2-0.6,0.7-0.5,0.9c0.1,0.2,1,0,1,0.1c0.1,0.2-0.7,0.6-0.7,0.8c0.1,0.2,1,0.1,1,0.3
					c0,0.2-0.8,0.5-0.8,0.7c0,0.2,0.9,0.2,1,0.4c0,0.2-0.9,0.4-0.9,0.6c0,0.2,0.9,0.4,0.9,0.6c0,0.2-0.9,0.3-1,0.4
					c0,0.2,0.8,0.5,0.8,0.7c0,0.2-1,0.1-1,0.3c-0.1,0.2,0.7,0.6,0.7,0.8c-0.1,0.2-1,0-1,0.1c-0.1,0.2,0.6,0.7,0.5,0.9
					c-0.1,0.2-0.9-0.2-1,0c-0.1,0.1,0.5,0.8,0.4,1c-0.1,0.1-0.9-0.3-1-0.2c-0.1,0.1,0.4,0.9,0.3,1c-0.1,0.1-0.8-0.4-1-0.3
					c-0.1,0.1,0.3,0.9,0.1,1c-0.1,0.1-0.8-0.6-0.9-0.5c-0.2,0.1,0.1,1,0,1c-0.2,0.1-0.7-0.7-0.8-0.6c-0.2,0.1,0,1-0.2,1
					c-0.2,0.1-0.6-0.8-0.7-0.7c-0.2,0-0.2,1-0.4,1c-0.2,0-0.4-0.9-0.6-0.8C115.9,84,115.8,84.9,115.6,84.9z"/>
			</g>
			<path fill="#263238" d="M84.8,18.3v-2h-3.8v2 M73.7,18.3v4.4h7.5v2H85v-2h4.6v6.9H82l-11.7,8.9h-4l7.9-6.9l-9.5,0.1
				c-1.2,2.2-3.4,3.6-6.1,3.6H32.3c-2.4,0-4.6-1.3-5.8-3.2l-5.9,0.1l-2.4,3h-5v3.8l5.1-0.2l6.4,3.4H13.3v4.1H32l20.8,10.6l-0.3,11.9
				l-5.4,1c0.7,2.1,1.1,4.3,1.2,6.5l5.6-1v4.4h36.9c-0.1-0.7-0.1-1.4-0.1-2.2c0-0.7,0-1.5,0.1-2.2h-2.2l5.5-16.2l3-1l3.4-6.5
				l3.2,4.1c1.6-0.9,3.3-1.6,5.1-2.1l-1.3-2c0,0,1.4-4,19.8-1c0,0-0.8-4-11.3-4v-6.3L107,29.6h-7.4l-3.7-11.3 M59.4,75.2v-6.9h6.1
				l6.1,6.9H59.4z M84.6,71.7h-4.8l4.8-13h5.3L84.6,71.7z M105.4,39.9c0,0-5.3-3.6-13.9-6.9h14.9l5.9,6.9H105.4z"/>
		</g>
	</g>
</g>
</svg>
