<?xml version="1.0" encoding="utf-8"?>
<!-- Generator: Adobe Illustrator 19.2.0, SVG Export Plug-In . SVG Version: 6.00 Build 0)  -->
<svg version="1.1" id="Layer_1" xmlns="http://www.w3.org/2000/svg" xmlns:xlink="http://www.w3.org/1999/xlink" x="0px" y="0px"
	 viewBox="0 0 150 150" style="enable-background:new 0 0 150 150;" xml:space="preserve">
<path d="M49.7,67.7L30.7,43.1L11.8,67.7h7.5v41.2c3.4-0.8,6.6-1.1,10-1.2c3.7-4,8.1-7.6,12.8-10.4V67.7H49.7L49.7,67.7z
	 M136.3,53.5L117.4,29L98.5,53.5h7.5v7.4c4.6,1.6,9.7,4.5,9.8,10V78c0,2.3-1,4-2.8,5.2c-0.5,0.4-1.1,0.8-1.8,1.2
	c1.4,0.4,2.8,0.8,4.1,1.2c4.9,1.7,11,4.5,13.4,9.3V53.6L136.3,53.5L136.3,53.5z M99.9,42.2L69.7,3L39.6,42.2h15.1v31.2
	c2.1-0.9,4.2-1.6,6.4-2.1v-0.3c0.1-5.7,5.7-8.6,10.4-10.2c4.2-1.5,8.8-2.2,13.4-2.5v-16H99.9L99.9,42.2z M111.4,125.2
	c4.4,4.1,9.9,8.3,15.4,10.7c2.6,1.1,7.7,2.9,10,0.4c2.3-2.4,0.2-7.5-1-9.9c-2.7-5.4-7.2-10.6-11.6-14.8c-4.4-4.1-9.9-8.3-15.4-10.7
	c-2.6-1.1-7.7-2.9-10-0.4c-2.3,2.4-0.2,7.5,1,9.9C102.5,115.8,107,121,111.4,125.2L111.4,125.2z M126.2,109.4
	c4.8,4.6,9.4,10,12.5,16c2,3.9,4.7,10.1,1.2,13.9l-6.1,6.5c-1.1,1.2-2.3,1.4-3.8,1.1c-9.2-1.2-19.2-8-25.7-14.2
	c-6.6-6.2-14-15.7-15.7-24.8c-0.3-1.5-0.2-2.7,0.9-3.9l6.1-6.5c3.6-3.7,10-1.4,14,0.4C115.6,100.7,121.4,104.9,126.2,109.4
	L126.2,109.4z M93.4,122.8c-10.3,0.4-22.5-1.2-31.8-5.6c2.1-3.6,3.5-6.8,4.2-11c6.4,2.9,14.5,4,21.4,4.3
	C88.5,114.7,90.8,118.9,93.4,122.8L93.4,122.8z M109.4,87c1.7,0.4,3.4,0.9,5,1.5c4.9,1.7,12.4,4.9,12.4,11v8.1
	c-2-1.8-4.1-3.6-6.3-5.2c0.7-0.9,1.1-1.8,1.1-2.9c0-4-5.9-6.7-9-7.8c-1.1-0.4-2.2-0.8-3.3-1L109.4,87L109.4,87z M107.6,84.5v8.4
	c0,0.8-0.2,1.5-0.5,2.1c-4.3-1.5-9.4-2.2-12.8,1.2l-6,6.4c-3.6,0.5-7.2,0.8-10.5,0.8c-3.9,0-8.4-0.3-12.7-1.2
	c-0.1-0.2-0.3-0.3-0.4-0.5l-5.3-5.3c-2.8-2.7-6.8-2.2-10.4-0.9c-0.7-0.7-1-1.5-1-2.6v-8.7c0.1-5,6.2-7.7,10.2-9.1
	c1.5-0.5,2.9-0.9,4.5-1.3v3c-1,0.3-2.1,0.6-3,0.9c-2.5,1-7.4,3.3-7.4,6.5c0,3.3,4.9,5.5,7.4,6.4c5.6,2,12.3,2.7,18.2,2.7
	c5.9,0,12.6-0.7,18.2-2.7c2-0.7,5.4-2.2,6.8-4.4C104.4,85.8,106.1,85.2,107.6,84.5L107.6,84.5z M102.2,133.1
	c-9,5.6-22.1,7.5-32.2,7.5c-8.1,0-18.1-1.2-26.4-4.6c3.5-2.3,6.7-5,9.3-7.6c0.5-0.5,1-1,1.5-1.6c5.2,1.1,10.6,1.5,15.6,1.5
	c7.3,0,15.3-0.9,22.2-3.3c0.9,0,1.8-0.1,2.7-0.1C97.2,127.9,99.7,130.7,102.2,133.1L102.2,133.1z M45.6,121.2
	c3.6-3.6,7.2-8.1,9.4-12.7c1-2.1,2.6-6.4,0.6-8.4c-2-2-6.3-0.4-8.4,0.6c-4.6,2.2-9.1,5.8-12.7,9.4s-7.2,8.1-9.4,12.7
	c-1,2.1-2.6,6.4-0.6,8.4c2,2,6.3,0.4,8.4-0.6C37.5,128.5,42.1,124.8,45.6,121.2L45.6,121.2z M32.8,108.3c4-4,8.7-7.7,13.7-10.1
	c3.3-1.6,8.6-3.7,11.7-0.7l5.3,5.3c1,1,1.1,2,0.9,3.3c-1.2,7.7-7.3,15.9-12.6,21.3S38.1,138.7,30.4,140c-1.3,0.3-2.3,0.1-3.3-0.9
	l-5.3-5.3c-3-3.1-0.9-8.5,0.7-11.7C25.1,117.1,28.8,112.4,32.8,108.3L32.8,108.3z M28.6,110.6c-4.2,0.2-8.5,0.9-12.4,2.2
	c-3.1,1-7.8,3.1-7.8,6.9v6.6c0,1.2,0.5,1.9,1.5,2.6c2.7,2,6.1,3.3,9.7,4.1c-1.1-2.3-0.8-5.2,0.1-7.8c-0.8-0.2-1.6-0.5-2.4-0.8
	c-2-0.7-5.6-2.4-5.6-4.9s3.7-4.2,5.6-4.9c2.9-1,6.2-1.6,9.4-1.9C27.3,112.1,27.9,111.4,28.6,110.6L28.6,110.6z M88.5,78.4
	c4.8,0,10.3-0.6,14.9-2.2c2.1-0.8,6.1-2.6,6.1-5.2c0-2.7-4-4.5-6.1-5.2c-4.6-1.6-10-2.2-14.9-2.2s-10.3,0.6-14.9,2.2
	c-2.1,0.8-6.1,2.6-6.1,5.2c0,2.7,4,4.5,6.1,5.2C78.2,77.8,83.6,78.4,88.5,78.4L88.5,78.4z M88.5,61.1c5.3,0,11,0.7,16,2.4
	c3.3,1.1,8.3,3.3,8.4,7.4V78c0,1.3-0.5,2.1-1.6,2.8c-6,4.3-15.6,5.8-22.8,5.8s-16.8-1.5-22.8-5.8c-1-0.7-1.6-1.5-1.6-2.8v-7.1
	c0.1-4.1,5-6.3,8.4-7.4C77.5,61.8,83.2,61.1,88.5,61.1L88.5,61.1z"/>
</svg>
