<?xml version="1.0" encoding="utf-8"?>
<!-- Generator: Adobe Illustrator 19.2.0, SVG Export Plug-In . SVG Version: 6.00 Build 0)  -->
<svg version="1.1" id="Layer_1" xmlns="http://www.w3.org/2000/svg" xmlns:xlink="http://www.w3.org/1999/xlink" x="0px" y="0px"
	 viewBox="0 0 150 150" style="enable-background:new 0 0 150 150;" xml:space="preserve">
<g>
	<path d="M86.7,148.2l23.2-44.2l6.2,10.7c17.7-18.3,21.2-46.2,8.4-68.3c-13.3-23.1-40.9-33.9-66.3-26l1.1-2.2l8.1-16.6
		c28.9-3,56.9,11.2,71.5,36.4c17.3,30,11.4,68.1-14.2,91.3l7.1,12.3L86.7,148.2L86.7,148.2z M11.2,111.8
		c-16.7-29-11.8-65.6,11.9-89.1l-6.9-11.9l46.3-8.9L38,48.6l-6.3-10.9c-15.8,18.3-18.3,44.8-6.2,65.8c13.1,22.8,40.2,33.6,65.3,26.3
		l-1.6,3.2l-7.5,15.3C53.2,151,25.6,136.8,11.2,111.8L11.2,111.8z"/>
	<path d="M99.2,95.3l-10.7,4.4V73.6L53.1,55.5c3.4-1.4,6.8-2.7,10.3-4.1l35.8,18V95.3L99.2,95.3z M101.2,88l24.6-9.9V83
		l-24.6,9.9V88L101.2,88z M56,110.9L24.2,95.2v-4.9L56,106.1l30.5-12.2v4.9L56,110.9L56,110.9z M101.2,80.7l24.6-9.9v4.9l-24.6,9.9
		V80.7L101.2,80.7z M56,103.7L24.2,87.9V83L56,98.8l30.5-12.2v4.9L56,103.7L56,103.7z M101.2,73.5l24.6-9.8v4.9l-24.6,9.8V73.5
		L101.2,73.5z M56,96.4L24.2,80.6v-4.9L56,91.5l30.5-12.2v4.9L56,96.4L56,96.4z M91.8,63.6c-0.1-0.3-0.2-0.6-0.3-1
		c-0.8-1.6-2.6-3.2-5.4-4.7c-2.8-1.4-6.2-2.4-9.6-3c-0.8-0.1-1.6-0.2-2.3-0.3L91.8,63.6L91.8,63.6z M125.8,56.5v4.7l-24.6,9.9v-2.8
		l-6-3l6.1-2.4c3.5-1.4,7.1-2.8,10.6-4.2c-0.4-0.2-0.8-0.4-1.2-0.6c-2.2-1.1-1.9-2.8,0.5-3.7c0.5-0.2,0.9-0.4,1.4-0.5
		c-4.7-2.4-9.3-4.7-14-7.1c-0.5,0.2-0.9,0.4-1.4,0.5c-2.4,1-6.1,0.9-8.3-0.2c-0.4-0.2-0.8-0.4-1.2-0.6c-3.5,1.4-7.1,2.8-10.6,4.2
		l-6.2,2.5L67,51.2c9-3.6,18-7.2,27-10.8C104.6,45.8,115.2,51.2,125.8,56.5L125.8,56.5z M80.1,71.3l-17.9,7.1
		c-0.4-0.2-0.8-0.4-1.2-0.6c-2.1-1.1-5.9-1.2-8.3-0.2c-0.5,0.2-0.9,0.4-1.4,0.5c-4.7-2.4-9.3-4.7-14-7.1c0.5-0.2,0.9-0.4,1.4-0.5
		c2.4-1,2.7-2.6,0.5-3.7c-0.4-0.2-0.8-0.4-1.2-0.6L56,59.1l-3.8-1.9c-9.3,3.7-18.7,7.5-28,11.2v5.1L56,89.1l30.5-12.2v-2.4
		L80.1,71.3L80.1,71.3z M58.1,60.1c-0.1,0.7,0.1,1.4,0.4,2.1c0.8,1.6,2.6,3.2,5.4,4.7c2.8,1.4,6.2,2.4,9.6,3c1.5,0.2,3,0.4,4.5,0.4
		L58.1,60.1L58.1,60.1z"/>
</g>
</svg>
