<?xml version="1.0" encoding="utf-8"?>
<!-- Generator: Adobe Illustrator 19.2.0, SVG Export Plug-In . SVG Version: 6.00 Build 0)  -->
<svg version="1.1" id="Layer_1" xmlns="http://www.w3.org/2000/svg" xmlns:xlink="http://www.w3.org/1999/xlink" x="0px" y="0px"
	 viewBox="0 0 150 150" style="enable-background:new 0 0 150 150;" xml:space="preserve">
<path d="M129.9,2.2c-36.6,0-73.2,0-109.8,0c46.1,42-46.1,84,0,126.1c19.8,0,39.7,0,59.5,0c-1.9-4.7-3.7-10.4-1.6-17.6
	l0.3-1c-0.8-0.6-1.6-1.2-2.3-1.9c-3.3-3.3-5.2-7.6-5.1-12.1c0-4.5,1.8-8.8,5.1-12.1c3.6-3.6,8.6-5.7,13.8-5.7
	c10,0,17.9,7.8,17.9,17.8c0,7-3.9,13-9.7,15.9l-0.7,2.8c-1.1,4.3,0.7,8.6,2.6,13.1c0.1,0.3,0.3,0.6,0.4,0.9c9.9,0,19.8,0,29.7,0
	C83.8,86.2,176,44.2,129.9,2.2z M126.6,46.6H42.7c0.5-1.6,1-3.2,1.5-4.9h84.5C128,43.3,127.4,44.9,126.6,46.6z M130.8,27.8
	c0.2,1.6,0.2,3.2,0,4.9H45.6c0.1-1.6,0.1-3.2,0-4.9H130.8z M123.7,14c1.5,1.6,2.8,3.3,3.8,4.9H44c-0.5-1.6-1.1-3.3-1.9-4.9H123.7z
	 M24.4,83.2h38c-0.8,1.7-1.5,3.3-2.1,4.9H22.2C22.8,86.5,23.6,84.9,24.4,83.2z M19.1,102c0-1.6,0.1-3.2,0.4-4.9H58
	c-0.2,1.7-0.2,3.3-0.1,4.9H19.1z M24.5,115.8c-1.3-1.6-2.4-3.3-3.2-4.9h39.6c1,1.6,2.2,3.2,3.7,4.9H24.5z M66.9,74.3H29.1
	c0.7-1.3,1.4-2.5,2.1-3.9c0.2-0.3,0.4-0.7,0.6-1h37.8C68.7,71.1,67.8,72.7,66.9,74.3z M36.7,60.4c0.8-1.6,1.6-3.2,2.4-4.9h83
	c-0.9,1.6-1.8,3.2-2.7,4.9H36.7z M102.5,95.6c0,6.9-5.4,12.5-12.7,12.5c-7.2,0-13.6-5.6-13.6-12.5c0-6.9,6.4-12.5,13.6-12.5
	C97.1,83,102.5,88.6,102.5,95.6z M93.1,113.1c-3.3,12.4,10.5,23.7,3.2,34.8l-4.7-7.5l-9.5,6.3c10.7-15-3.8-21.2,0.1-34.8
	c2.4,1,5,1.6,7.6,1.6h0C90.9,113.4,92,113.3,93.1,113.1z"/>
</svg>
