<?xml version="1.0" encoding="utf-8"?>
<svg version="1.1" id="Layer_1" xmlns="http://www.w3.org/2000/svg" xmlns:xlink="http://www.w3.org/1999/xlink" x="0px" y="0px"
     viewBox="0 0 500 500" style="enable-background:new 0 0 500 500;" xml:space="preserve">
<g>
    <path d="M432,410.4H68.1c-2.4,0-4.5,2-4.5,4.5v14.7c0,2.4,2,4.4,4.5,4.4H432c2.4,0,4.4-2,4.4-4.4v-14.7
        C436.4,412.3,434.4,410.4,432,410.4z"/>
    <path d="M256.6,360.8c-1.7,0-3,1.4-3,3c0,1.7,1.4,3,3,3s3.1-1.4,3.1-3C259.7,362.2,258.3,360.8,256.6,360.8z"/>
    <path d="M268.2,110.5c4.8,1.9,7.3,7,11.8,9.2c6.3,3,9-1.7,14.4-3.3c5.9-1.7,13.5,0.5,18.7,3.3V79.8
        c-5.2-2.8-12.8-5-18.7-3.3c-5.4,1.5-8.1,6.3-14.4,3.3c-4.6-2.2-7.1-7.2-11.8-9.2c-4.4-1.8-10.3-2.7-14.8-1.3v39.9
        C257.8,107.7,263.8,108.7,268.2,110.5z"/>
    <path d="M249.3,125.3h1.3c0.4,0,0.7-0.3,0.7-0.7v-15.5V69.2v-2.5c0-0.4-0.3-0.7-0.7-0.7h-1.3c-0.4,0-0.7,0.3-0.7,0.7
        v57.9C248.7,125,249,125.3,249.3,125.3z"/>
    <path d="M444,202.8h-83.5L278,146.2l-26.9-18.4h-2.2l-109.5,75H56c-2.3,0-4.2,1.8-4.2,4.2v17.2c0,2.3,1.9,4.2,4.2,4.2
        h194h194c2.3,0,4.2-1.9,4.2-4.2V207C448.2,204.7,446.3,202.8,444,202.8z M250,211.6c-13.4,0-24.2-10.8-24.2-24.2
        c0-13.4,10.8-24.2,24.2-24.2c5,0,9.7,1.5,13.5,4.1c6.4,4.3,10.7,11.7,10.7,20.1C274.2,200.8,263.4,211.6,250,211.6z"/>
    <circle cx="243.4" cy="363.8" r="3"/>
    <path d="M78.3,236.5v165.8h343.4V236.5H78.3z M353.7,260.1c0-0.6,0.5-1.1,1.1-1.1h15.5v23.5h-16.6V260.1z M353.7,287.3
        h16.6v23.5h-15.5c-0.6,0-1.1-0.5-1.1-1.1V287.3z M353.7,327c0-0.6,0.5-1.1,1.1-1.1h15.5v23.5h-16.6V327z M292.4,260.1
        c0-0.6,0.5-1.1,1.1-1.1H309v23.5h-16.6V260.1z M292.4,287.3H309v23.5h-15.5c-0.6,0-1.1-0.5-1.1-1.1V287.3z M292.4,327
        c0-0.6,0.5-1.1,1.1-1.1H309v23.5h-16.6V327z M267.9,259c0.6,0,1.1,0.5,1.1,1.1v22.4h-16.6V259H267.9z M252.4,287.3H269v22.4
        c0,0.6-0.5,1.1-1.1,1.1h-15.5V287.3z M231,260.1c0-0.6,0.5-1.1,1.1-1.1h15.5v23.5H231V260.1z M231,287.3h16.6v23.5h-15.5
        c-0.6,0-1.1-0.5-1.1-1.1V287.3z M169.7,260.1c0-0.6,0.5-1.1,1.1-1.1h15.5v23.5h-16.6V260.1z M169.7,287.3h16.6v23.5h-15.5
        c-0.6,0-1.1-0.5-1.1-1.1V287.3z M169.7,327c0-0.6,0.5-1.1,1.1-1.1h15.5v23.5h-16.6V327z M108.4,260.1c0-0.6,0.5-1.1,1.1-1.1H125
        v23.5h-16.6V260.1z M108.4,287.3H125v23.5h-15.5c-0.6,0-1.1-0.5-1.1-1.1V287.3z M108.4,327c0-0.6,0.5-1.1,1.1-1.1H125v23.5h-16.6
        V327z M109.5,377.7c-0.6,0-1.1-0.5-1.1-1.1v-22.4H125v23.5H109.5z M146.3,349.4v27.2c0,0.6-0.5,1.1-1.1,1.1h-15.5v-23.5h16.6
        L146.3,349.4h-16.6v-23.5h15.5c0.6,0,1.1,0.5,1.1,1.1V349.4z M146.3,282.6v27.2c0,0.6-0.5,1.1-1.1,1.1h-15.5v-23.5h16.6
        L146.3,282.6h-16.6V259h15.5c0.6,0,1.1,0.5,1.1,1.1V282.6z M170.8,377.7c-0.6,0-1.1-0.5-1.1-1.1v-22.4h16.6v23.5H170.8z
         M207.7,376.6c0,0.6-0.5,1.1-1.1,1.1H191v-23.5h16.6V376.6z M207.7,349.4H191v-23.5h15.5c0.6,0,1.1,0.5,1.1,1.1V349.4z
         M207.7,309.7c0,0.6-0.5,1.1-1.1,1.1H191v-23.5h16.6V309.7z M207.7,282.6H191V259h15.5c0.6,0,1.1,0.5,1.1,1.1V282.6z M248.7,401.8
        h-30.1c-1.3,0-2.3-1-2.3-2.3v-71.4c0-1.3,1-2.3,2.3-2.3h30.1V401.8z M283.8,399.5c0,1.2-1,2.3-2.3,2.3h-30.1v-76h30.1
        c1.3,0,2.3,1,2.3,2.3V399.5z M293.5,377.7c-0.6,0-1.1-0.5-1.1-1.1v-22.4H309v23.5H293.5z M330.3,376.6c0,0.6-0.5,1.1-1.1,1.1h-15.5
        v-23.5h16.6V376.6z M330.3,349.4h-16.6v-23.5h15.5c0.6,0,1.1,0.5,1.1,1.1V349.4z M330.3,309.7c0,0.6-0.5,1.1-1.1,1.1h-15.5v-23.5
        h16.6V309.7z M330.3,282.6h-16.6V259h15.5c0.6,0,1.1,0.5,1.1,1.1V282.6z M354.8,377.7c-0.6,0-1.1-0.5-1.1-1.1v-22.4h16.6v23.5
        H354.8z M391.7,376.6c0,0.6-0.5,1.1-1.1,1.1h-15.5v-23.5h16.6V376.6z M391.7,349.4h-16.6v-23.5h15.5c0.6,0,1.1,0.5,1.1,1.1V349.4z
         M391.7,309.7c0,0.6-0.5,1.1-1.1,1.1h-15.5v-23.5h16.6V309.7z M391.7,282.6h-16.6V259h15.5c0.6,0,1.1,0.5,1.1,1.1V282.6z"/>
</g>
</svg>
