<?xml version="1.0" encoding="utf-8"?>
<!-- Generator: Adobe Illustrator 19.2.0, SVG Export Plug-In . SVG Version: 6.00 Build 0)  -->
<svg version="1.1" id="Layer_1" xmlns="http://www.w3.org/2000/svg" xmlns:xlink="http://www.w3.org/1999/xlink" x="0px" y="0px"
	 viewBox="0 0 150 150" style="enable-background:new 0 0 150 150;" xml:space="preserve">
<g>
	<path d="M137.7,135.9v10H6.3v-0.4H5.8V14h10v121.8H137.7z M59.9,130.2h11.5V64L59.9,76.8V130.2z M103.8,66.8l-5.7-2.8
		v66.2h11.5V59.8L103.8,66.8z M21.6,130.2h11.5v-23.6l-11.5,12.8V130.2z M117.2,130.2h11.5V38.6l-11.5,12.8V130.2z M40.7,130.2h11.5
		V85.3L40.7,98.1V130.2z M79,55.5v74.7h11.5V60.5l-11.3-5.2L79,55.5z M129,9.1l-15.2,5l7.2,6.5L99.3,44.7L75,33.4l0,0L21.6,92.9
		v18.8l56.5-63L102.5,60l0,0v0l0,0l0,0l27.9-31.1l7.2,6.5l3.3-15.6l3.3-15.6L129,9.1z"/>
</g>
</svg>
