<?xml version="1.0" encoding="utf-8"?>
<!-- Generator: Adobe Illustrator 18.1.0, SVG Export Plug-In . SVG Version: 6.00 Build 0)  -->
<svg version="1.1" id="Layer_1" xmlns="http://www.w3.org/2000/svg" xmlns:xlink="http://www.w3.org/1999/xlink" x="0px" y="0px"
	 viewBox="0 0 140 140" enable-background="new 0 0 140 140" xml:space="preserve">
<path fill="#263238" d="M138.5,77.5c0,0,0.8-1.1,0.2-2.2c-0.6-1-1.6-1.1-2.1-1.1c-0.5,0-3.7-0.4-4-0.3c-0.3,0.2-1,0.1-1.3,1.8
	c-0.3,1.6-0.6,3.7-1,4.3c-0.4,0.6-3.5,3.6-4.5,4.3l-0.2,0c0,0,1.9-1.9,2.8-2.8c0.9-0.8,1.4-1.6,1-1.4c-0.5,0.2-0.8,0.4-0.5,0.1
	c0.3-0.3,0.9-2.1-0.1-2.9c-0.9-0.8-1.8-0.8-3.5-1c-1.7-0.2-3.9-0.9-4.4,1.3c-0.5,2.2-0.8,4.1-1.4,5.1c-0.6,1-1.4,1.5-1.4,1.5
	s-2.4,0.1-3.1,0.2c0,0,0,0,0-0.1c0-0.1,0-0.2,0-0.2c0-0.1-0.2-0.1-0.2-0.2c0.1-0.2,0.3-0.2,0-0.3c-0.2-0.1-0.7-2.5-0.7-2.5
	s-0.1-0.5,0-0.4c0,0,1.8-1.5,2.5-2.2c0.7-0.8,1.1-1.4,1.5-1.7c0.4-0.3,1.3-0.8,1.2-1.7c0,0,1.4-1.5,1.5-1.7c0.1-0.2-0.1-0.4,0-0.7
	c0.1-0.3,0.4-0.9,0.5-1c0.1-0.1,0.3-0.3,0.3-0.5c0-0.2-0.1-0.8,0.1-0.8c0.3,0,3.8,0.1,3.8,0.1s0.4,0,0.7-0.4
	c0.3-0.4-0.4-1.1-0.7-1.2c-0.3-0.2-2.7-1.1-3.5-1.3c0,0-4.8-3.8-9.9-6.4c-5.1-2.6-11-5.4-12.4-5.8c0,0,0.3-0.7-0.1-1.4
	c-0.4-0.7-3.7-6.5-6.6-9.7c0,0-0.2-0.7-1.8-1.9c-1.6-1.2-2.7-0.9-1.3,0.5c0,0-3.2-1.3-5-1.6c-1.8-0.3-1.1,0.8-0.7,1.2
	c0.4,0.4,1.8,1.7,0.2,1.6c-1.6,0-3.8,0-4.5,0.1c0,0-0.3-0.9-0.7-1.5c0,0,0.1-0.9,0.4-1c0.3-0.1,0.2,0.1,0.3-0.1
	c0.1-0.2,0.1-0.1,0.1,0.1s0.3,0.5,0.3,0.5l0.3,0.1c0,0-0.2,0.4,0,0.4c0.2,0,0.4-0.2,0.5-0.1c0.1,0.1,0.3-0.4,0.4-0.4
	c0.1,0,0.4,0,0.5,0s0.1,0.2,0.3,0.1c0.1-0.1,0.2-0.4,0.3-0.4s0.5,0.4,0.6,0.3c0.1-0.1,0.1-0.4-0.1-0.5c-0.2-0.2-0.8-0.5-0.9-0.5
	c-0.1,0-0.2,0-0.2-0.1c0,0-0.1-0.3-0.1-0.3l0.4-0.6v-0.1l0.4-0.7l-1.2-0.8l-0.3,0l-0.1,0.2c0,0-0.1,0-0.1-0.2c0-0.1-0.5-0.4-0.6-0.5
	c-0.1,0,0,0,0-0.1c0-0.2-0.2-0.4-0.6-0.5c-0.4-0.1-0.3,0-0.4,0.1c-0.1,0.1-0.3-0.1-0.5,0c-0.2,0.1-0.5,0.5-0.7,0.5
	c-0.1,0-0.3,0-0.4,0c-0.2-0.2-0.7-0.8-1.1-1.4c-0.6-0.9-2.2-2.2-3.7-2.4c-0.8-0.1-1.3,0-1.5,0.4c-0.1,0.2-0.3,0.6,0.1,1.2
	c0.2,0.4,0.6,0.9,0.9,1.4c-0.2,0.1-0.3,0.2-0.4,0.2c-0.1,0-0.7,0-1.3,0.1c-0.6,0-0.8,0.2-1.3,0.2c-0.5,0-1.5-0.5-2.1,0.1
	c-0.6,0.6-1.2,1.9-1.4,2.1c-0.2,0.2-0.1,0.4,0.1,0.6c0.2,0.2,0.8,0.5,1,0.2c0.2-0.3,0.8-1.8,1.3-1.8c0.5,0.1,1.9,0.5,2,0.5
	c0.1,0,0.7,0.4,0.7,0.4s0.1,0.7,0.5,0.8c0.4,0.2,0.7,0,0.7,0l0,0.2l0.1,0l0-0.2c0,0,0.2,0,0.3,0s0.1,0.2,0.1,0.2l0.2,0.1
	c0,0,0-0.2,0.1-0.2c0,0,0.2,0,0.4,0c0.2,0,0.9,0.4,0.9,0.4s0.2,1.5,0.4,2.2c0.2,0.7,0.5,1.7,0.5,1.7s-0.9,1,0.5,2.1l0.6,2.5
	l-0.6,0.5l-3,0.2l0,0.2l-0.1,0l0-0.2l-0.4,0c0,0-1-0.4-1.8-0.4c0,0-0.2,0.2-0.6,0c0,0-1.7,0.3-1.9,0.7l0,0.2c0,0-2.4,0.2-5.1,3.8
	c0,0-0.8,0.1-1.8-0.1c-1-0.2-9.4-1.4-11.6-1.8S46,51.5,44.6,51c-1.4-0.5-4.7-0.9-5.5-0.9c-0.8,0-4.9,0.7-8.1,0.8
	c-3.2,0.1-4.2,0.5-4.6,0.7c-0.3,0.2-0.4,0.5-0.2,1.2c0.2,0.7,0.6,1.9,0.4,2.5c0,0-1.2-0.7-1.9-0.8c-0.8,0-2-0.2-2.6,0
	c0,0-2.7-1.9-6.5-3.1c-3.8-1.2-5.4-0.9-6.3-0.9c-0.9,0-1.3,0-1.7,0.2c-0.5,0.3-0.6,0.3-1.2,0.4c-0.6,0.1-0.8,0.1-0.7,1
	c0.1,0.8,0.3,1.7,0.3,2.5c0,0.9,0,1.4-0.3,1.4c-0.3,0-1.3-0.1-1.5,0c-0.2,0.1-0.6,0.2-0.7,0.7c0,0-1.7-0.1-2.1,0.1
	C0.7,57,0.6,57.6,1,58c0.4,0.4,0.4,0.4,0.4,0.4l0,1.3c0,0,0,0.5,0.4,0.7c0,0-0.6,0.3-0.8,2c-0.2,1.7-1.1,7.6-1.1,7.6
	s-0.3,1.3,0.3,1.6c0.6,0.3,2.2,0.1,3.1,0.1c0.9,0,5.5-0.7,6.3-0.9c0.7-0.2,1.2-0.5,1.5-1.8c0.3-1.3,1.1-5.4,1.1-5.4s7.3,2.9,8.4,3.2
	c1.1,0.4,5.9,2.1,7.1,2.3l0.4,0.6c0,0-1.1-0.3-0.9,0.2c0.2,0.6,0.2,0.6,0.2,0.6l-0.1,0l0,0.1c0,0-0.3-0.1-0.3-0.1
	c0,0.1,0.2,0.5,0.1,0.5c-0.1,0-0.3-0.2-0.2,0c0.1,0.2,0.3,0.5,0.1,0.6c-0.2,0-0.3,0-0.3,0.1c0,0.1-0.1,0.1-0.4,0.1
	c-0.2,0-0.5-0.4-0.6-0.4c-0.1,0-0.2,0.1-0.3,0.2c0,0.1-0.1,0.3-0.2,0.3c-0.1,0-0.3,0-0.5-0.4c-0.3-0.4-0.5-0.9-0.7-0.9
	c-0.2,0-0.6,0-0.5,0.1c0,0.1,0,0.3-0.1,0.2c-0.1-0.1-0.3-0.3-0.5-0.2c-0.2,0-0.3,0.1-0.2,0.2c0.1,0.1,0.4,0.4,0.2,0.3
	c-0.2-0.1-0.6-0.3-0.6-0.2c-0.1,0.1-0.3,0.4-0.3,0.5c0,0.1-0.1,0.1-0.2,0.1c-0.1,0-0.5-0.1-0.4,0.1c0,0.2,0.1,0.4-0.1,0.3
	c-0.2-0.1-0.5-0.1-0.5,0c0,0.1,0.2,0.7,0.2,0.8c0,0.1-0.1,0-0.2-0.1c-0.1-0.1-0.3-0.1-0.4-0.1c-0.1,0-0.1,0.1-0.1,0.1
	c0,0.1,0,0.1-0.1,0.1c-0.1,0-0.1,0.2-0.2,0.2c-0.2,0-0.3,0.1-0.3,0.2c0,0.1-0.2,0.2-0.4,0.1c-0.2-0.1-0.3-0.8-0.6-1
	c-0.2-0.1-0.5-0.1-0.5-0.1s0,0-0.2-0.1c-0.2-0.1-0.4-0.2-0.5-0.2c-0.1,0-0.3-0.1-0.3-0.1c-0.1,0-0.3,0-0.3,0.2
	c0,0.2,0.1,0.2-0.1,0.2c-0.2,0-0.3-0.1-0.3,0c0,0.2,0,0.2-0.1,0.2c-0.2,0-0.2,0.2-0.1,0.5c0.1,0.3,0.3,0.7,0.2,0.7
	c-0.2,0-0.5-0.1-0.5,0c0,0.1-0.1,0.3-0.2,0.3c-0.1,0-0.4,0.1-0.6,0c-0.2-0.1-0.5-0.1-0.5,0c0,0.1,0.1,0.2-0.1,0.2
	c-0.2,0-0.5,0.2-0.5,0c-0.1-0.3-0.2-0.7-0.3-0.7c-0.1,0-0.2,0.2-0.3,0c-0.1-0.2-0.1-0.6-0.4-0.6c-0.2,0-0.3,0.2-0.5,0.1
	c-0.2-0.1-0.3-0.2-0.4-0.1c-0.1,0-0.4-0.2-0.4,0.1c0,0.3,0,0.5,0.2,0.7c0.2,0.2,0.2,1.1,0.1,1.2c-0.2,0.1-0.3,0.2-0.6,0.2
	c-0.3,0-0.7,0.1-0.8,0c-0.2-0.1,0-0.3-0.4-0.3c-0.3,0-0.4,0-0.4,0.2c0.1,0.2,0.1,0.2-0.1,0.3c-0.2,0.1-0.4,0.2-0.4,0.3
	C9.1,75.7,8.2,76,8,76.3c-0.3,0.3-0.3,0.1-0.5,0.1c-0.2,0-0.8-0.2-1-0.2c-0.2,0-0.4,0.3-0.2,0.5c0.2,0.1,0.6,0.4,0.7,0.6
	c0.1,0.2,0,0.5-0.1,1c-0.1,0.5-0.1,0.9-0.1,1.3c0.1,0.4,0,0.4-0.1,0.6c-0.1,0.2-0.1,0.4,0.1,0.5c0.2,0.2,0.2,0,0.4,0.4
	c0.2,0.4,0.5,0.8,0.7,1c0.2,0.2,0.2,0.4,0.2,0.9c0,0.5,0.1,1,0.4,1.5c0.4,0.5,0.6,0.5,0.8,0.5c0.2,0,0.4-0.2,0.4-0.2s0.2,0,0.2,0.1
	s0,0.2,0.1,0c0.1-0.1,0.3,0.1,0.3-0.1c0-0.2,0.1-0.7,0.2-0.9c0.1-0.2,0.3-0.4,0.5-0.2c0.1,0.2,0.5,0.3,0.7,0.3c0.2,0,0.6-0.1,0.7,0
	c0.1,0.1,0.5,0.1,0.7,0.3c0.2,0.1,0.5,0.1,0.5,0.3c0.1,0.2,0.2,0.8,0.5,1.1c0.4,0.3,0.6,0.4,0.6,0.4s0.2,0,0.2,0c0,0,0.1-0.1,0.3,0
	s0.4,0.1,0.4,0c0-0.1,0-0.2,0.1-0.1c0.1,0.1,0.1,0.1,0.2,0c0.1-0.1-0.1-0.2,0.1-0.1c0.1,0.1,0.3,0.2,0.2-0.1c0-0.3-0.1-0.7-0.1-1.1
	c0-0.3,0.2-0.4,0.3-0.2c0,0.2,0.2,0.1,0.2,0.2c0,0.1,0.1,0.3,0.2,0.3c0.1,0,1.4,0,1.4,0c0-0.1,0-0.3,0.2-0.4c0.2,0,0.5,0.1,0.6,0.4
	c0.1,0.3,0.2,1.2,0.5,1.4c0.3,0.2,0.5,0.2,0.5,0c0-0.2,0.1-0.4,0.2-0.2c0,0.2-0.2,0.2,0.1,0.3c0.3,0.1,0.5,0,0.5,0.1
	c0.1,0.1,0.3,0.3,0.5,0.2c0.2-0.1,0.1-0.3,0.2-0.2c0.2,0.1,0.2,0,0.7,0c0.5,0.1,0.9,0.1,0.6-0.1c-0.2-0.2-0.3-0.7-0.2-0.7
	c0.1,0,0.9-0.1,0.9-0.1l0.1-0.4c0,0,0.4-0.1,0.5,0.1c0.1,0.1,0.5,1.7,1.1,1.8c0.6,0.2,0.6,0,0.8,0c0.1,0,0.2-0.1,0.5-0.1
	c0.2,0,0.2,0.2,0.3,0.1c0.1-0.1-0.1-0.3,0.2-0.2c0.4,0.1,0.4,0.1,0.4,0c0-0.1,0-0.3,0-0.5c-0.1-0.2-0.1-0.5-0.1-0.5s0.1,0,0.4,0
	c0.3,0,0.3,0.1,0.4,0c0.1-0.1,0-0.2,0.1-0.1c0.1,0.1,0.1,0.2,0.3,0.2c0.2,0,0.3,0,0.4,0s0.1-0.1,0.2-0.1c0,0,0.2-0.2,0.4,0
	c0.1,0.2,0.2,0.9,0.6,1.1c0.3,0.2,0.6,0.4,0.9,0.2c0.2-0.1,0.2-0.2,0.5-0.1c0.2,0.1,0.3,0.3,0.5,0.1c0.2-0.1,0.3-0.2,0.4-0.2
	c0.1,0,0.2,0,0.1-0.2c0-0.2-0.2-0.8-0.1-0.9c0-0.1,0.2-0.1,0.3-0.1c0.1,0,0.1,0.3,0.3,0.3c0.2,0,0.2,0.3,0.3,0.4
	c0,0.1,0.1,0.4,0.5,0.2c0.4-0.1,0.9-0.2,0.9-0.2l0-0.4c0,0,0-0.1,0.2-0.1c0.2,0,0.5-0.1,0.6,0.2c0.1,0.3,0.3,0.8,0.6,1.1
	c0.3,0.2,0.5,0.2,0.8,0.2c0.3,0,0.4-0.3,0.6-0.3c0.2,0,0.2,0.1,0.3,0.1c0.2,0,0.2,0.1,0.2-0.1c0.1-0.1,0.1-0.2,0.1-0.2
	s0.1,0,0.3-0.1c0.2-0.1,0.1-0.2,0.3-0.2c0.2,0,0.2,0.4,0.3,0.5c0.1,0.1,0.5,0.1,0.7,0c0.2-0.1,0.4-0.2,0.5-0.2c0.2,0,0.7-0.1,0.8,0
	c0.1,0.1,0.3,0.9,0.6,1c0.2,0.1,0.7,0.2,0.9,0.2c0.1,0,0.4-0.2,0.6-0.2c0.2,0.1,0.3,0.1,0.4,0c0.1,0,0.4-0.1,0.3-0.3
	c0-0.2,0-0.4,0-0.5c0-0.1,0.1-0.2,0.3-0.2c0.2,0.1,1.2,0,1.4,0.2c0.3,0.2,0.4,0.5,0.7,0.6c0.2,0.1,0.4,0.2,0.5,0.1
	c0.1,0,0.4,0,0.5,0.2c0.1,0.2,0.6,0.4,1.2,0.4c0.6,0,0.7,0.1,0.9-0.1c0.2-0.2,0.2-0.2,0.3-0.2c0.1,0,0.1,0,0-0.2
	c-0.1-0.2-0.1-0.6-0.1-0.7c0.1-0.1,0.2-0.2,0.5-0.1c0.3,0.1,0.3,0.4,0.6,0.3c0.3-0.1,0.6-0.3,1-0.3c0.4,0,0.9-0.2,1,0.1
	c0.2,0.3,0.2,0.5,0.3,0.4c0.2,0,0.5-0.3,0.6,0c0.1,0.3,0.6,1.2,1.1,1.3c0.5,0,0.8,0.2,0.9,0c0.1-0.2,0-0.3,0.2-0.2
	c0.2,0.1,0.2,0.1,0.4,0c0.2-0.1,0.4-0.1,0.4-0.3c0-0.2-0.3-0.6-0.4-0.8c-0.1-0.2-0.1-0.4-0.1-0.4s0.5-0.2,0.4,0c0,0.2,0,0.2,0.4,0.2
	c0.5,0,0.9-0.1,0.9-0.2c0-0.1,0.4-0.2,0.5-0.1c0.1,0.1,0.4,0.5,0.8,0.7c0.4,0.2,0.5,0.1,0.8,0c0.3,0,0.5-0.3,0.8-0.2
	c0.3,0,0.7,0.1,0.7-0.1c0-0.1-0.1-1-0.1-1s0.1,0.3,0.3,0.3c0.2,0,0.5,0,0.7,0c0.2,0,0.7-0.1,0.7-0.1s-0.1-0.4,0.1-0.2
	c0.1,0.1,0,0.3,0.2,0.3c0.2,0,0.3,0.1,0.3,0.2c0.1,0.1,0.7,1,0.8,0.9c0.2-0.1,0.2-0.2,0.4-0.1c0.1,0.1,0.3,0,0.5-0.1
	c0.2-0.1,0.3-0.2,0.5-0.1c0.2,0.1,0.3,0.1,0.4,0c0.1-0.2,0-0.1,0.3-0.2c0.3-0.1,0.6,0,0.5-0.1c-0.1-0.1-0.3-0.4-0.1-0.3
	s0.4,0,0.4-0.1c0.1-0.1,0.5,0.1,0.3-0.2c-0.1-0.3-0.4-0.6-0.3-0.7c0.1-0.1,0.2-0.1,0.2-0.2c0-0.1-0.2-0.2,0.1-0.2s0.4-0.1,0.5,0.1
	c0.1,0.2,0.3,0.3,0.6,0.6c0.4,0.3,0.5,0.5,0.7,0.5c0.2-0.1,0.3-0.1,0.5,0c0.2,0,0.4,0,0.4-0.1c0-0.2,0-0.2,0.2-0.2
	c0.2,0,0.5-0.1,0.4-0.2c-0.1-0.1-0.4-0.7-0.3-0.9c0.1-0.2,0.3-0.6,0.5-0.5c0.3,0.1,0.3,0,0.5,0.1c0.2,0.1,0.6,0.5,0.8,0.6
	c0.2,0.1,0.7,0,0.6-0.1c0-0.1-0.2-0.4,0-0.4c0.2,0,0.7-0.2,0.9-0.2c0.1,0,0.7,0,0.5-0.2c-0.1-0.2-0.5-0.7-0.5-0.8
	c0-0.1,0.2-0.3,0.4-0.3c0.2,0,0.5,0.5,0.7,0.7c0.2,0.2,0.9,0.6,1,0.6c0.1,0,0.7,0.3,0.4-0.2c-0.3-0.5-0.5-0.7-0.5-0.9
	c-0.1-0.2,0-0.2,0.3,0c0.3,0.2,1,0.5,1.2,0.5c0.2,0,0.6,0,0.8,0c0.2,0,0.5-0.1,0.4-0.2c-0.1-0.1-0.2-0.5-0.1-0.5
	c0.2,0,0.7,0.1,0.5-0.3c-0.2-0.4-0.5-0.7-0.3-0.7c0.2,0,0.8-0.1,0.8-0.2c0-0.1,0-0.5,0-0.5c0.1,0,1.1,0.1,1.1,0.1s0.6,0.7,1,0.8
	c0.4,0.2,0.8,0.2,0.8,0c-0.1-0.1-0.5-0.4-0.3-0.5c0.2-0.1,0-0.1,0.2-0.1c0.2,0,0.2,0,0.4-0.1c0.2-0.1,0.2-0.2,0.3-0.1
	c0.2,0,0.4,0,0.4,0s1.9-0.1,2.3-0.1c0.4,0,0.8,0.1,0.9,0.1c0.2,0,0.2,0,0.6,0c0.4-0.1,0.8-0.2,0.9-0.2c0.1,0,2-0.1,2.1-0.1
	s0.2,0.1-0.1,0.2c-0.3,0.1-2.7,0.5-3.8,0.8c-1.1,0.2-1.8,0.5-1.9,0.7c0,0.2-0.2,0.3,0.6,0.1c0.8-0.2,2-0.5,2.1-0.5
	c0,0,0.4-0.1,0.6,0c0.2,0.1,0.3,0.2,0.9,0.1c0.5-0.1,3.7-0.5,4.3-0.5s1.2-0.3,1.7-0.2c0.5,0,1.2,0,1.4-0.1c0.2-0.1,0.4-0.1,0.4-0.1
	s0.9,0.7,1.3,0.7l0.7,1.1c0,0,0.1,0.2,0.4,0.1l0.3,1.1l-0.9,0c0,0-0.3-0.3-0.7-0.2c-0.3,0.1-1.3,0.6-1.3,0.6s-0.2,0.3,0,0.4
	c0.2,0.1,0.3,0.2,0.4,0.2c0,0.1,0.1,0.2,0.4,0.3c0.3,0.1,2.2,0.5,2.6,0.4l0.1,0.3l-0.1,0.1l0.1,0.2l0.2,0l0.1,0.2l-0.1,0.2
	c0,0-3.1,0.6-4.7,1c-1.5,0.4-2.9,0.7-4.3,0.6c-1.4-0.1-4.9-0.7-5.3-0.6c-0.4,0.1-1.1,0.2-1.5,0.1c-0.5-0.1-0.5-0.2-0.8-0.1
	c-0.3,0.1-1.2,0.4-1.6,0.4c-0.3,0-0.4,0.3-0.2,0.5c0.2,0.1,1.3,0.5,1.6,0.6c0.3,0.1,0.9,0.2,1.4,0.3c0.5,0.1,0.9,0.2,1.3,0.3
	c0.4,0.1,5.1,2.1,11.8,2.1c6.7,0,16.1-1.2,18.4-2.3c2.4-1.1,3.9-1.9,4.4-2.3c0,0,5.4-0.1,9.1-2.1c3.7-2,6.7-5.3,7.5-6.4
	c0.8-1.2,2-2.2,2.2-2.5C139.2,77.5,139.4,76.8,138.5,77.5z M80.9,38.6l-0.2,0.3l-0.2-0.1L80.9,38.6z M71.3,39.3
	c0.2,0.1,0.7,0.5,0.7,0.5C71.3,39.9,71.3,39.3,71.3,39.3z M2.1,59.9c-0.2,0-0.2-0.3-0.2-0.3v-1.2C2,58.5,2,58.6,2,58.7
	c0,0.1,0.5,0.7,0.5,0.7S2.4,59.9,2.1,59.9z M11.2,56.3l-2.6-0.1c-0.2-0.2-0.6-1.5-0.7-2c-0.1-0.5,0-0.4,0-0.4
	C8.6,54.1,11.2,56.3,11.2,56.3L11.2,56.3z M15.8,56.1c-0.1,0-1.5,0.1-1.5,0.1c-0.7-0.8-3.9-2.6-3.9-2.6s2.3,0.1,2.7,0.1
	c0.4,0,0.6,0,0.8-0.2c0.2-0.1,1.4-0.4,1.6-0.4c0.3,0,0.5,2,0.6,2.3C16.1,55.8,15.9,56.1,15.8,56.1z M17.9,54.4
	c-0.3-0.6-0.1-0.5-0.1-0.5c1.1,0.3,3.8,2.1,3.8,2.1c0,1.1,0.2,1.9,0.2,1.9C18.9,57.5,18.2,54.9,17.9,54.4z M15.6,76.4l-0.2-0.4
	c0,0,0.4-0.3,0.7-0.4C16.2,75.7,15.7,76.1,15.6,76.4z M31.1,77.3c-0.1,0.2-0.2,0.5-0.2,0.5l-0.4,0.3h-0.4c0,0-0.5,0.5-0.7,0.6
	c-0.2,0.1-0.6,0.6-0.7,0.7c-0.1,0.1-1.4,0.1-1.5,0.1c-1.7,0.3-2.6,0.9-2.6,0.9s0,0-0.1-0.1c-0.1-0.1-0.4-0.1-0.4-0.1l-2.2,0.1
	c0,0,0.7-1.4,0-3.1c-0.7-1.7-2.4-2-2.4-2V75c0,0,0.1-0.1,0.4-0.2c0.3-0.1,0.2,0.2,0.3,0.3c0.2,0.1,0.3-0.1,0.7-0.1
	c0.4,0,0.2-0.3,0.3-0.4c0.1-0.1,0.1,0.1,0.3,0.2c0.2,0,0.5-0.1,0.5-0.2c0-0.1,0.1-0.2,0.3-0.2c0.2,0,0.3,0.2,0.6,0.3
	c0.2,0.1,0.6,0,0.6-0.1c0-0.1,0.2-0.3,0.2-0.3s0.2,0.1,0.3,0.1c0.2,0,0.5,0,0.5-0.1c0-0.1,0.2-0.3,0.3-0.3c0.1,0,0.2,0,0.3,0.2
	c0.1,0.2,0.5,0.1,0.7,0.1c0.2-0.1,0.3-0.5,0.3-0.5s0.2,0.1,0.3,0.1c0.1,0,0.4-0.1,0.5-0.2c0-0.1,0.3-0.1,0.5-0.1
	c0.2,0,0.2,0,0.4,0.2c0.1,0.2,0.4,0.1,0.7,0c0.3-0.1,0.1-0.4,0.1-0.4s0.2-0.2,0.3-0.1c0.1,0.1,0.4,0,0.6,0c0.2,0,0.7-0.1,0.9-0.1
	c0.2-0.1,0.2-0.2,0.2,1c0,1.2,0.5,2.2,0.6,2.4C31.3,76.7,31.2,77.2,31.1,77.3z M37.4,76.2l-0.2,0.3C37.2,75.9,37.4,76.2,37.4,76.2z
	 M45.5,82c0,0.4-2.5-0.1-2.5-0.1s-0.9-1.4-2.1-1.5c-1.2-0.1-2.5,1-2.6,1.6l-1.8-0.1c0,0,0.3-0.9-0.4-2.1c0,0,1.1,0.1,1.4-0.6
	c0.3-0.7,0.1-1.6,0.1-1.6s6.8,3.4,8,3.8C45.6,81.3,45.5,81.6,45.5,82z M45.9,80.6c-2.4-0.5-8.6-3.9-8.6-3.9l0.5-0.2l9.1,3.2
	C46.2,79.9,45.9,80.6,45.9,80.6z M56.3,78.2L56.1,78c0,0-1.4-0.3-1.6-0.3c-0.2,0-0.6,0-1,0.2c-0.4,0.2-0.3,1.5-0.3,1.5l-1,0.3
	l-1.6-0.5c0,0-0.1-0.6-0.3-0.7c-0.2-0.1-1.3-0.6-1.9-1.1c-0.6-0.5-0.7-0.6-1-0.7c-0.2-0.1-2.5-1.9-2.5-1.9c0.1-0.2,0-1.1,0-1.1
	l10.8,3l-0.2,0.6l1.9,0.5c0,0-0.3,0.3-0.4,0.3C56.9,78.1,56.3,78.2,56.3,78.2z M62.5,79.2c-0.4,0.1-0.8,0.3-0.9,0.4
	c-0.1,0.2,0,0.4-0.4,0.6c-0.4,0.2-0.5,0.2-0.7,0.3c-0.2,0.1-0.9,0-1.2,0.1c-0.2,0.1-0.3,0.2-0.6,0.2c-0.3,0-0.8,0-0.8,0
	c-0.1,0-1.7,0.1,0.4-0.7l3.6-1.3l1.4,0.3C63.4,79,62.8,79.1,62.5,79.2z M65.9,82l0.1,0.7c0,0-0.8,0.3-1.1,0.4
	c-0.3,0.1-0.3-0.1-0.3-0.6c0-0.5-0.4-1.2-0.4-1.2s0.3-0.2,0.6-0.4c0.3-0.2-0.1-0.7-0.1-0.7c0.6,0.1,0.9-0.7,0.9-0.7s0.6,0.1,0.7,0.1
	c0.1,0,0.2,0.2,0.2,0.2C65.8,80.4,65.9,82,65.9,82z M68.8,80.4c-0.3,0.1-2.1,0.7-2.2,0.7c-0.1,0,0-0.1,0-0.1s0.3-1,0.5-1.2
	c0.2-0.2,2,0.2,2,0.2S69.1,80.3,68.8,80.4z M76,40.6L76,40.6l0,0.2l-0.5,0.1v-0.4H76V40.6z M76.4,40.2c0,0-1,0-1,0
	c0.1-0.1,0.3-0.5,0.3-0.5c0,0,0.3,0.2,0.5,0.3C76.3,40.1,76.4,40.2,76.4,40.2z M76.8,41L76.8,41l-0.2-0.3l0.1-0.1h0.1V41z M77,38.4
	l-0.1-0.2L76.5,39l0.3,0l-0.1,0.2c0,0-0.4-0.2-0.6-0.3c-0.2-0.1-0.3,0-0.3-0.1c0,0-0.3-0.2-0.3-0.3c0-0.1,0.2-0.4-0.1-0.5
	c-0.3-0.1-0.6-0.6-0.7-0.6c-0.1-0.1-0.1-0.1-0.1-0.1s0.3-0.3,0.2-0.5c-0.1-0.2-0.5-0.1-0.5,0.1c-0.1,0.2,0,0.4,0,0.4
	S74,37.1,73.5,37c0,0-0.1-0.1-0.1-0.2c-0.3-0.4-0.9-1.3-1.1-1.8c-0.2-0.3-0.2-0.5-0.1-0.5c0.1-0.1,0.3-0.2,0.9-0.1
	c1.2,0.2,2.7,1.4,3.2,2.1c0.4,0.6,0.9,1.2,1.1,1.5C77.2,38.2,77,38.4,77,38.4z M97.4,55.6c-0.7-0.1-8.2-1.6-8.2-1.6s1.6-0.6,1-1.3
	c-0.6-0.7-3.9-3.7-4.4-4.5c-0.5-0.8-0.5-1.3,1-0.8c1.5,0.6,7.3,2.8,7.8,3.2c0.5,0.3,3.2,2.9,3.8,3.9C98.9,55.5,98.1,55.7,97.4,55.6z
	 M101.4,82.8c0.3,0,0.8-0.2,0.8-0.2v0.3l-0.3,0.3h-0.4l-0.2-0.2V82.8z M113,84.5v0.1c0,0-2.8,0.3-5.1,0.8c-2.3,0.6-4.1,0.5-4.8,0.4
	c-0.6-0.1-1.9-0.2-1.9-0.2l-0.4-1.2c0,0,0.3-0.1,0.5-0.1c0.3,0,0.2-0.2,0.2-0.2l0.3,0c0,0,0,0.1,0,0.2c0,0.1,0.1,0.1,0.3,0.1
	c0.1,0,0.2-0.3,0.3-0.2c0.1,0,0.2-0.1,0.2-0.1c0.3,0,0.4-0.1,0.4-0.3c0-0.2-0.1-0.4-0.1-0.4c0.5,0,0.6-1,0.6-1c1.2,0,6-0.8,6-0.8
	h0.2c0,0,0.1,0.2,0.2,0.3c0.1,0,0.3-0.3,0.3-0.3h0.3l0.1,0.2h0.8h0.7c0,0,0.1,0.5,0.2,0.6c0.1,0.1-0.1,0.2-0.2,0.2
	c-0.2,0-0.1,0.2,0,0.2c0,0,0.4,0.1,0.4,0.1l0.3,1l-0.1,0.1l0,0.3h0.1V84.5z M120,84.2c0,0,1-1.2,1.5-3.3c0.4-2.1,0.7-3.6,1.2-3.5
	c0.5,0,1,0.4,1.7,0.6c0.7,0.2,1.7,0.1,2.1,0c0.5-0.1,0.7,0,1.1,0.2s0.6,0.9,0,1.4c-0.6,0.5-1.2,0.7-1.2,1.2c0,0.5-0.1,1.4-0.3,1.7
	c-0.2,0.3-2,1.6-2.5,1.9C123.6,84.4,120.9,84.2,120,84.2z M137,77.3c-0.2,0.1-0.5,0.4-0.6,0.8c0,0.4,0.1,1.2-0.3,1.4
	c-0.3,0.2-2,1.8-2.5,2.2c-0.5,0.4-3.9,2.3-6,2.5c0,0,3.4-2.9,4-4.5c0.6-1.6,0.6-3.5,0.9-4.3c0.3-0.7,0.9-0.3,1.2-0.2
	c0.3,0.1,1.2,0.4,2.4,0.3c1.2-0.1,1.2-0.1,1.6,0.6S137.3,77.1,137,77.3z"/>
</svg>
