<?xml version="1.0"?>
<svg xmlns="http://www.w3.org/2000/svg" height="512px" viewBox="-40 0 480 480.03789" width="512px"><path d="m199.785156 237.039062c-20.964844.332032-37.789062 17.414063-37.792968 38.382813-.007813 20.964844 16.804687 38.0625 37.765624 38.40625.007813 0 .019532.210937.023438.210937h.042969c21.261719-.007812 38.492187-17.25 38.488281-38.511718-.007812-21.261719-17.25-38.496094-38.511719-38.488282zm0 0" fill="#000"/><path d="m.0195312 379.472656v65.566406h114.9999998v-30.328124c-.054687-20.8125 8.765625-40.65625 24.246094-54.5625-8.5625-23.96875-31.21875-40.003907-56.671875-40.109376h-22.953125c-32.867187-.03125-59.546875 26.566407-59.6210938 59.433594zm0 0" fill="#000"/><path d="m400.019531 445.039062v-65.355468c0-32.890625-26.625-59.574219-59.515625-59.644532h-23.070312c-25.484375.164063-48.152344 16.210938-56.78125 40.1875.953125.867188 1.925781 1.734376 2.839844 2.652344 13.824218 13.792969 21.574218 32.53125 21.527343 52.058594v30.101562zm0 0" fill="#000"/><path d="m271.019531 414.929688c.019531-32.972657-26.628906-59.75-59.601562-59.890626h-23.171875c-32.816406 0-59.226563 26.863282-59.226563 59.683594v65.316406h142zm0 0" fill="#000"/><path d="m328.390625 202.039062c-21.261719-.007812-38.503906 17.226563-38.511719 38.488282-.003906 21.261718 17.226563 38.503906 38.488282 38.511718h.625c20.90625 0 37.796874-17.464843 37.644531-38.378906.074219-21.207031-17.019531-38.480468-38.226563-38.621094zm0 0" fill="#000"/><path d="m71.191406 202.039062h-.019531c-21.261719-.007812-38.503906 17.222657-38.511719 38.488282-.003906 21.261718 17.226563 38.503906 38.488282 38.511718h.027343c21.019531 0 37.808594-17 38.246094-38.492187.011719-21.164063-17.066406-38.363281-38.230469-38.507813zm0 0" fill="#000"/><path d="m322.183594 50.59375c-44.96875-44.960938-111-61.585938-171.898438-43.28125-60.902344 18.304688-106.824218 68.578125-119.558594 130.882812 20.742188-17.957031 51.785157-17.019531 71.402344 2.160157.050782.050781.097656.097656.148438.152343 3.023437 3.199219 5.671875 6.738282 7.882812 10.546876 2.207032-3.808594 4.851563-7.347657 7.878906-10.546876.101563-.101562.199219-.199218.300782-.300781 20.539062-19.902343 53.1875-19.835937 73.648437.148438.050781.046875.101563.097656.148438.152343 3.027343 3.199219 5.671875 6.738282 7.882812 10.546876 2.210938-3.8125 4.855469-7.351563 7.882813-10.550782.09375-.101562.195312-.203125.296875-.300781 20.542969-19.898437 53.191406-19.832031 73.652343.148437.046876.050782.097657.101563.144532.152344 3.027344 3.199219 5.671875 6.742188 7.882812 10.550782 2.210938-3.808594 4.855469-7.351563 7.882813-10.550782.097656-.101562.195312-.203125.300781-.300781 19.628906-19 50.503906-19.917969 71.226562-2.113281-6.71875-33.175782-23.109374-63.621094-47.105468-87.496094zm0 0" fill="#000"/></svg>
