<?xml version="1.0" encoding="utf-8"?>
<!-- Generator: Adobe Illustrator 18.1.0, SVG Export Plug-In . SVG Version: 6.00 Build 0)  -->
<svg version="1.1" id="Layer_1" xmlns="http://www.w3.org/2000/svg" xmlns:xlink="http://www.w3.org/1999/xlink" x="0px" y="0px"
	 viewBox="0 0 216 216" enable-background="new 0 0 216 216" xml:space="preserve">
<g id="E4OOc3_1_">
	<g>
		<path d="M156.5,69.2c12.2,0.3,22.4,1.1,32.1,5.1c2.5,1,4.9,2.5,6.9,4.2c3.5,3,3.5,6.6,0.1,9.8c-3.7,3.5-8.5,5.1-13.3,6.4
			c-9.7,2.5-19.7,3.3-29.7,2.7c-8-0.5-15.9-1.5-23.4-4.4c-2.4-1-4.9-2.2-7-3.8c-4.7-3.4-4.7-7.8-0.1-11.4c4.1-3.2,8.9-4.7,13.9-5.9
			c2.5-0.6,5-1.1,7.5-1.4C148.5,69.8,153.4,69.4,156.5,69.2z"/>
		<path d="M114.7,148.7c-9.8,0-20.1-0.7-29.9-4.3c-3.1-1.2-6.2-2.8-8.7-4.9c-3.8-3-3.6-6.7,0-10c3.6-3.2,8-4.8,12.5-6
			c11.6-3.1,23.3-3.7,35.2-2.5c7,0.7,14,1.9,20.4,4.9c2.3,1.1,4.6,2.5,6.5,4.2c3,2.7,2.9,6,0.1,8.9c-2.4,2.5-5.4,4-8.6,5.2
			C133.4,147.3,124.4,148.3,114.7,148.7z"/>
		<path d="M68,35.1c9.9,0.2,20.1,1.1,29.8,5.1c2.4,1,4.7,2.3,6.7,4c3.9,3.2,3.8,7-0.1,10.4c-3.4,2.9-7.5,4.5-11.7,5.6
			c-11.7,3.2-23.6,3.8-35.7,2.6c-7-0.7-14-1.9-20.4-4.9c-2.3-1-4.5-2.5-6.3-4.1c-3-2.7-3-6.1-0.1-9c2.8-2.9,6.5-4.5,10.3-5.7
			C49.1,36.1,58.3,35.3,68,35.1z"/>
		<path d="M27.9,59.7c3,5.2,7.9,7.1,12.9,8.7c10.8,3.4,21.9,4.1,33.2,3.5c7.2-0.4,14.2-1.4,21-3.8c1.8-0.6,3.6-1.4,5.4-2.2
			c3.1-1.5,4.7-3,6.9-6.1c0,2.4,0.3,4.6-0.1,6.8c-0.3,1.6-1.1,3.4-2.3,4.4c-2.5,1.9-5.2,3.7-8.2,4.8c-10.8,4.1-22.2,5-33.7,4.5
			c-7.7-0.3-15.3-1.2-22.6-3.8c-3-1.1-5.9-2.6-8.7-4.3c-2.7-1.6-4-4.2-3.8-7.5C27.9,63.1,27.9,61.5,27.9,59.7z"/>
		<path d="M27.9,93.8c3.4,5.6,8.9,7.5,14.5,9.2c10.8,3.1,21.9,3.7,33,3c7.4-0.5,14.7-1.7,21.6-4.4c5.3-2,8.1-4.1,10-7.5
			c0.6,7.6,0.9,10-6.2,14c-5.7,3.2-12,4.5-18.4,5.4c-9.8,1.4-19.7,1.4-29.5,0c-6.6-0.9-13-2.3-18.9-5.7c-1.4-0.8-2.7-1.9-4-3
			c-1.5-1.4-2.2-3.2-2.1-5.2C27.9,97.8,27.9,95.9,27.9,93.8z"/>
		<path d="M152.7,161.9c0,2.5,0.1,4.7,0,6.8c-0.1,2-1.2,3.6-2.6,4.9c-2.8,2.6-6.2,4-9.8,5.2c-10.4,3.4-21.2,4.3-32.1,3.8
			c-8.3-0.4-16.5-1.4-24.3-4.5c-2.8-1.1-5.4-2.7-7.8-4.4c-2-1.4-2.9-3.6-2.8-6.2c0.1-1.8,0-3.5,0-5.5c3.3,5.5,8.7,7.4,14.1,9
			c10.9,3.2,22.1,3.8,33.4,3c7.4-0.5,14.7-1.7,21.6-4.4C146.5,168.2,150.3,166.3,152.7,161.9z"/>
		<path d="M152.7,145.3c0,1.6-0.1,3.2,0,4.8c0.2,3.2-1.2,5.6-3.7,7.4c-3.9,2.9-8.3,4.5-13,5.5c-16.9,3.9-33.7,3.9-50.3-1.3
			c-3.2-1-6.2-2.8-9.1-4.6c-2.4-1.5-3.6-4-3.4-7c0.1-1.6,0-3.3,0-5.2c3.4,5.5,8.9,7.5,14.4,9.1c10.7,3.1,21.7,3.7,32.9,3
			c7.5-0.5,14.8-1.6,21.8-4.4c1.4-0.6,2.8-1.2,4.2-1.9C149,149.4,151.2,147.8,152.7,145.3z"/>
		<path d="M107.2,76.6c0,2.5,0.1,4.6,0,6.7c-0.1,2.6-1.6,4.4-3.6,5.9c-4.3,3.2-9.3,4.9-14.5,6c-16.4,3.5-32.8,3.4-48.9-1.6
			c-3.1-1-6-2.7-8.8-4.4c-2.6-1.6-3.8-4.1-3.6-7.2c0.1-1.6,0-3.3,0-5.1c3.3,5.6,8.8,7.5,14.3,9.1c10.8,3.2,21.9,3.8,33,3
			c7.3-0.5,14.6-1.6,21.5-4.3c0.9-0.3,1.8-0.7,2.6-1.1C102.4,82,105.4,80.2,107.2,76.6z"/>
		<path d="M118.8,93.6c1.9,3.8,4.9,5.5,8.1,7c6,2.8,12.3,4,18.8,4.8c8.6,1,17.1,1,25.7,0c6.6-0.8,13.1-2.1,19.1-5
			c3.8-1.8,5.6-3.4,7.7-6.6c0,2.4,0.1,4.6,0,6.8c-0.2,2.6-1.7,4.5-3.8,5.7c-3.5,1.9-7.1,3.8-10.9,4.9c-11.6,3.4-23.5,3.9-35.5,2.7
			c-7-0.7-13.9-1.9-20.4-4.8c-2.2-1-4.3-2.5-6.3-4c-1.8-1.4-2.6-3.3-2.5-5.6C118.8,97.7,118.8,95.9,118.8,93.6z"/>
		<path d="M159.1,131.6c-1.7-3-3.1-5.6-4.6-8.4c0.4,0,1,0,1.7,0c10.1,0.2,20.1-0.7,29.7-3.9c2.1-0.7,4.2-1.6,6.2-2.7
			c2.5-1.3,4.6-3,6.1-5.9c0,2.6,0.1,4.9,0,7.2c-0.1,2.1-1.4,3.8-3.1,5c-2.3,1.5-4.7,3-7.2,4C178.4,130.6,168.6,131.4,159.1,131.6z"
			/>
		<path d="M27.9,110.6c1.8,3.7,4.7,5.4,7.8,6.9c7.2,3.3,14.8,4.8,22.6,5.3c4.5,0.3,9,0.1,13.5,0.1c-1.7,3-3.2,5.7-4.9,8.8
			c-10.5-0.3-21.3-1.2-31.5-5.9c-1.4-0.7-2.8-1.6-4.1-2.5c-2.4-1.8-3.7-4-3.5-7.1C28,114.4,27.9,112.8,27.9,110.6z"/>
		<path d="M198.2,128.4c0,1.8,0,3.9,0,6c-0.1,2.7-1.5,4.7-3.6,6c-3.1,1.8-6.3,3.5-9.7,4.7c-8.1,2.8-16.6,3.5-25.1,3.7
			c-0.3,0-0.7,0-1.1-0.1c0-2.7,0-5.4,0-8.1c3-0.2,6.1-0.3,9.1-0.5c6.9-0.6,13.7-1.7,20.2-4.3c2.2-0.9,4.4-2,6.4-3.4
			C195.8,131.2,196.9,129.7,198.2,128.4z"/>
		<path d="M198.2,144.8c0,2-0.1,3.6,0,5.1c0.3,3.6-1.4,6.1-4.2,8c-4.2,2.8-8.9,4.3-13.7,5.5c-7,1.7-14.2,2.2-21.5,2.4
			c0-2.8,0-5.5,0-8.3c3.1-0.2,6.1-0.3,9.1-0.5c7.6-0.6,15-1.9,22-5C193.1,150.4,196.2,148.6,198.2,144.8z"/>
		<path d="M27.8,127.9c3.1,5.3,8.2,7.1,13.3,8.8c7.8,2.5,15.9,3.4,24.1,3.6c0.6,0,1.2,0,1.8,0c0.1,0,0.2,0.1,0.4,0.2
			c0,2.6,0,5.2,0,8.2c-2.8-0.1-5.6-0.2-8.4-0.4c-6.8-0.6-13.5-1.5-19.9-4c-2.7-1.1-5.3-2.5-7.8-4.1c-2.5-1.6-3.7-4-3.5-7.1
			C27.9,131.4,27.8,129.8,27.8,127.9z"/>
		<path d="M27.9,144.9c3.1,5.2,8.1,7.1,13.1,8.8c7.4,2.4,15.1,3.3,22.8,3.6c1.1,0,2.2,0,3.5,0c0,2.8,0,5.5,0,8.4
			c-2.5-0.1-5.1-0.2-7.7-0.4c-7.9-0.6-15.6-1.7-22.9-5c-2.2-1-4.2-2.3-6.2-3.8c-2-1.5-2.9-3.6-2.8-6.2
			C27.9,148.7,27.9,147,27.9,144.9z"/>
	</g>
</g>
</svg>
