<?xml version="1.0" encoding="utf-8"?>
<!-- Generator: Adobe Illustrator 18.1.0, SVG Export Plug-In . SVG Version: 6.00 Build 0)  -->
<svg version="1.1" id="Layer_1" xmlns="http://www.w3.org/2000/svg" xmlns:xlink="http://www.w3.org/1999/xlink" x="0px" y="0px"
	 viewBox="0 0 216 216" enable-background="new 0 0 216 216" xml:space="preserve">
<g>
	<path d="M144.7,92.5c-11.3,29.9-22.4,59.4-34,90.1C99.2,152,88,122.4,76.7,92.5C99.5,92.5,121.8,92.5,144.7,92.5z"/>
	<path d="M14.4,92.2c6.4,0,11.6,0,16.9,0c11.8,0,23.5,0.1,35.3,0c2.3,0,3.5,0.5,4.4,2.8c10.9,29.2,21.9,58.3,32.9,87.5
		c0.2,0.6,0.4,1.2,0.1,2.2C74.4,154.1,44.8,123.5,14.4,92.2z"/>
	<path d="M117.1,183.5c4.2-11.2,8.5-22.4,12.7-33.6c6.8-18,13.6-36,20.3-54.1c0.9-2.6,2.1-3.7,5-3.6c15.9,0.2,31.7,0.1,47.6,0.1
		c1,0,2,0,4.3,0c-30.2,31.2-59.7,61.6-89.1,92C117.6,184,117.4,183.7,117.1,183.5z"/>
	<path d="M143.3,85.7c-22.1,0-43.3,0-65.1,0c10.9-16.5,21.5-32.5,32.5-49.1C121.6,53,132.2,69.1,143.3,85.7z"/>
	<path d="M67.5,85.8c-18,0-35.5,0-53.8,0C25.2,68.5,36.4,51.6,48,34.1C54.6,51.6,60.9,68.4,67.5,85.8z"/>
	<path d="M207.7,85.8c-18.2,0-35.6,0-53.7,0c6.5-17.2,12.8-34,19.4-51.6C185,51.6,196.1,68.3,207.7,85.8z"/>
	<path d="M114.6,31.1c18.1,0,35.4,0,53.2,0c-6.4,17-12.7,33.7-19.3,51.2C137.1,65,126.1,48.3,114.6,31.1z"/>
	<path d="M53.6,31.1c17.9,0,35.2,0,53.2,0C95.5,48.2,84.4,64.8,72.9,82.2C66.4,64.9,60.1,48.3,53.6,31.1z"/>
</g>
</svg>
