<?xml version="1.0" encoding="utf-8"?>
<!-- Generator: Adobe Illustrator 18.1.0, SVG Export Plug-In . SVG Version: 6.00 Build 0)  -->
<svg version="1.1" id="Layer_1" xmlns="http://www.w3.org/2000/svg" xmlns:xlink="http://www.w3.org/1999/xlink" x="0px" y="0px"
	 viewBox="0 0 216 216" enable-background="new 0 0 216 216" xml:space="preserve">
<g id="jgFOhO_1_">
	<g>
		<path d="M194.1,42.6c-1.7,2-2.8,2-4.6,0c-1.5-1.7-2.9-3.3-4.5-5c-6.1,5.4-12.2,10.7-18.3,16.1c1.6,1.8,3.1,3.5,4.6,5.2
			c1.3,1.6,0.7,3.7-1.2,3.8c-0.8,0.1-1.8-0.5-2.4-1.1c-1.2-1.2-2.3-2.5-3.4-3.8c-0.3-0.3-0.5-0.8-0.8-1.2
			c-5.9,5.2-11.4,10.1-17.1,15.1c1.2,1.3,2.3,2.6,3.4,3.9c0.5,0.6,1.1,1.2,1.6,1.9c0.9,1.1,0.8,2.3-0.1,3.2c-1,0.9-2.2,0.8-3.3-0.2
			c-1.1-1.2-2.2-2.4-3.3-3.6c-0.5-0.6-1.1-1.2-1.8-2c-8.9,7.8-17.8,15.7-26.6,23.5c1.3,2.2,1.1,2.9-0.8,4.5
			c-2.1,1.8-4.1,3.6-6.3,5.5c3,3.4,6,6.8,9.1,10.3c2-1.8,3.8-3.5,5.8-5.1c1-0.8,1-1.4,0.7-2.5c-2.4-8.3,1.5-16.8,9.4-20.2
			c4.6-2,9.3-1.9,13.8,0.2c0.9,0.4,1.6,0.5,2.5-0.1c2.7-1.6,5.6-2,8.5-0.7c6,2.6,9.9,7.1,11.1,13.5c0.5,2.8-0.4,5.2-2.1,7.5
			c-0.3,0.4-0.5,1.3-0.3,1.8c2.2,7.4,0.1,14.4-6,19c-5.1,3.8-10.8,4.4-16.7,1.9c-1.1-0.4-1.8-0.4-2.7,0.4c-1.4,1.3-2.9,2.6-4.5,4
			c2.6,1.3,5.1,2.6,7.6,3.7c0.3,0.1,0.8-0.1,1.1-0.3c0.9-0.7,1.8-1.6,2.7-2.2c1.1-0.8,2.4-0.6,3.1,0.4c0.7,0.9,0.5,2.3-0.4,3.1
			c-2.6,2.4-5.3,4.7-7.9,7c-1.2,1.1-2.6,1.1-3.5,0.1c-0.9-1-0.7-2.4,0.6-3.6c0.3-0.3,0.7-0.5,1.3-1c-2.9-1.4-5.3-2.7-7.9-3.8
			c-0.3-0.1-1,0.3-1.3,0.6c-2.3,2.2-4.9,3.8-8,4.6c-5.7,1.3-12.5-2.1-15.1-7.4c-2.8-5.9-1.3-12.9,3.8-17c0.3-0.3,0.6-0.6,1-0.9
			c-3-3.4-6-6.8-9.1-10.3c-1.9,1.7-3.8,3.3-5.7,5c-0.2,0.2-0.5,0.4-0.7,0.6c-1.8,1.6-2.4,1.6-4.4,0.2c-1.2,0.9-2.6,1.6-2.2,3.7
			c0.4,1.7-0.5,3.2-1.8,4.3c-5.2,4.5-10.3,9.1-15.5,13.6c-5.3,4.7-10.5,9.4-15.8,14c-7.1,6.2-14.1,12.4-21.2,18.6
			c-1.7,1.5-3.3,3-5,4.4c-3.4,2.6-7.3,1.6-9-2.3c-0.1-0.2-0.2-0.4-0.3-0.5c0-0.9,0-1.8,0-2.7c0.8-1.9,2.3-3.3,3.8-4.6
			c9.3-8.1,18.5-16.3,27.8-24.5c8.8-7.8,17.6-15.5,26.4-23.3c2-1.8,4.1-3.1,7-2.2c0.3,0.1,0.9-0.1,1.2-0.4
			c5.8-5.1,11.6-10.2,17.4-15.3c4.2-3.7,8.4-7.4,12.7-11.1c4.1-3.6,8.1-7.2,12.2-10.8c5.4-4.7,10.7-9.4,16.1-14.2
			c7.8-6.9,15.6-13.8,23.4-20.6c5.5-4.8,11-9.7,16.5-14.5c1.2-1.1,2.4-1.1,3.4-0.1c1,1,0.9,2.2-0.3,3.3c-0.8,0.8-1.7,1.4-2.4,2.2
			c-0.2,0.2-0.4,1-0.2,1.1c1.7,2,3.4,3.9,5.2,5.9C194.1,41.5,194.1,42,194.1,42.6z M152,130.6c3.7-0.1,6.7-1.5,9.5-4.7
			c3.4-4,3.8-10.8,0.5-14.9c-3.7-4.5-7.6-8.9-11.4-13.2c-1.7-2-3.9-3.2-6.4-3.8c-5.3-1.2-10.6,1-13.6,5.6
			c-2.8,4.3-2.7,10.1,0.7,14.3c3.6,4.5,7.4,8.8,11.3,13C145,129.4,148.1,130.7,152,130.6z M129.5,139.3c-1.3-1.1-1.5-1.2-2.4-0.5
			c-3.9,3-9.5,1.5-11.3-3.1c-1.1-2.7-0.6-5.3,1.4-7.5c2.1-2.4,4.9-3,7.9-2c2.7,0.9,4.5,2.8,4.6,5.7c0.1,2,0.9,2.9,2.6,3.4
			c0.2,0.1,0.4,0.3,0.6,0.3c0.4,0,0.9,0.1,1.1-0.1c2-1.7,3.9-3.4,5.7-5c-4.2-4.7-8.2-9.3-12.3-13.9c-3.7,3.2-7.4,6.5-11,9.8
			c-4.9,4.3-3.7,12.1,1.6,15C121.8,143.4,125.8,142.8,129.5,139.3z M153.7,94.4c3.8,4.3,7.5,8.5,11.2,12.7c1.5-2.5,0.5-6-2.6-9.4
			C159.4,94.5,156.2,93.2,153.7,94.4z"/>
	</g>
</g>
</svg>
