<?xml version="1.0" encoding="utf-8"?>
<!-- Generator: Adobe Illustrator 18.1.0, SVG Export Plug-In . SVG Version: 6.00 Build 0)  -->
<svg version="1.1" id="Layer_1" xmlns="http://www.w3.org/2000/svg" xmlns:xlink="http://www.w3.org/1999/xlink" x="0px" y="0px"
	 viewBox="0 0 164 164" enable-background="new 0 0 164 164" xml:space="preserve">
<g>
	<path d="M7.4,81.1c0-40.5,33.1-73.6,73.8-74c40.2-0.3,74,33.4,74,74c0,40.5-33.2,73.7-73.8,73.9C41.1,155.4,7.4,121.7,7.4,81.1z
		 M78.7,83.8c-10.6,0-20.9,0-31.2,0c-0.1,0.4-0.1,0.6-0.1,0.8c0.1,11.4,1.8,22.6,5.1,33.6c0.4,1.3,1.1,1.4,2.3,1.4
		c7.4,0,14.7,0,22.1,0c0.6,0,1.3-0.1,1.9-0.2C78.7,107.5,78.7,95.7,78.7,83.8z M78.7,42.8c-0.8,0-1.4-0.1-2.1-0.1
		c-7.2,0-14.5,0-21.7,0c-1.6,0-2.2,0.5-2.7,2c-2.7,8.9-4.1,18-4.8,27.3c-0.2,2.1,0,4.3,0,6.6c10.5,0,20.8,0,31.3,0
		C78.7,66.6,78.7,54.7,78.7,42.8z M84,83.7c0,12.1,0,24,0,35.8c0.4,0.1,0.7,0.2,0.9,0.2c7.8,0,15.7,0,23.5,0.1
		c1.3,0,1.6-0.8,1.9-1.7c3.2-10.6,4.8-21.5,5.1-32.6c0-1.4-0.4-1.8-1.7-1.8c-4.7,0.1-9.4,0-14.1,0C94.4,83.7,89.3,83.7,84,83.7z
		 M84,42.6c0,12.1,0,24,0,35.9c10.5,0,20.8,0,31.5,0c-0.2-3.8-0.1-7.5-0.7-11.1c-1.3-7.8-3-15.5-4.5-23.2c-0.2-1.2-0.9-1.6-2.2-1.6
		c-2.2,0.1-4.5,0-6.8,0C95.6,42.6,89.9,42.6,84,42.6z M114.6,42.6c3.7,11.9,5.4,23.8,5.8,35.8c10.1,0,19.9,0,30,0
		c-0.3-2.6-0.4-5-0.8-7.4c-1.4-9.9-4.7-19-10.2-27.4c-0.3-0.5-1-1-1.6-1C130.3,42.6,122.7,42.6,114.6,42.6z M42.2,78.5
		c0.3-12.3,2.1-24.1,5.7-35.9c-8,0-15.5,0-23.1,0.1c-0.7,0-1.6,0.7-2,1.4c-3.8,5.9-6.7,12.2-8.3,19c-1.2,5-1.8,10.1-2.8,15.4
		C22.3,78.5,32.2,78.5,42.2,78.5z M114.6,119.7c7.7,0,15.1,0,22.5,0c1.3,0,2.1-0.4,2.8-1.5c5-8,8.2-16.7,9.7-26.1
		c0.4-2.7,0.6-5.5,0.8-8.3c-10.2,0-20.1,0-30,0C120,96,118.4,107.8,114.6,119.7z M12.5,83.8c-0.1,0.2-0.2,0.3-0.2,0.3
		c0.1,1,0.1,2,0.2,3c0.8,11.3,4.4,21.7,10.5,31.2c0.4,0.7,1.6,1.2,2.4,1.2c5.8,0.1,11.6,0.1,17.4,0.1c1.6,0,3.2,0,5.1,0
		c-3.7-11.8-5.4-23.7-5.8-35.9C32.1,83.8,22.3,83.8,12.5,83.8z M78.7,37.5c0-8.5,0-16.7,0-24.9c-7.9-0.5-21.8,14.3-23.6,24.9
		C62.9,37.5,70.7,37.5,78.7,37.5z M83.9,37.5c8.1,0,15.9,0,24,0c-1.2-2.6-2.2-4.9-3.4-7.2c-3.1-5.8-6.9-11.1-12.5-14.9
		c-2.4-1.6-5-2.8-8-3.1C83.9,20.8,83.9,29.1,83.9,37.5z M54.8,124.8c2.7,6.8,6.1,13,11.1,18.1c2.8,2.9,6,5.2,9.8,6.4
		c0.9,0.3,1.9,0.4,2.9,0.7c0-8.6,0-16.9,0-25.2C70.7,124.8,62.8,124.8,54.8,124.8z M84,124.8c0,8.5,0,16.8,0,25.1
		c8.8-0.6,21.7-14.5,23.5-25.1C99.7,124.8,91.9,124.8,84,124.8z M64.3,14.2c-14.7,3.7-26.9,11.3-37,23.4c7.4,0,14.3,0,21.1-0.1
		c0.6,0,1.6-0.8,1.8-1.4C53.7,28.1,58,20.5,64.3,14.2z M98.2,14.2c6.4,6.3,10.7,13.8,14,22c0.5,1.1,1.1,1.5,2.3,1.5
		c5.7-0.1,11.3,0,17,0c1.1,0,2.1,0,3.7,0C125.2,25.5,113,17.9,98.2,14.2z M98.2,148.1c14.8-3.7,26.9-11.3,36.9-23.4
		c-7.5,0-14.5,0-21.5,0c-0.4,0-1,0.6-1.2,1.1C109,134,104.7,141.7,98.2,148.1z M27.8,124.7c5.3,9.3,26.9,22.9,36.6,23.3
		c-1.3-1.4-2.6-2.8-3.8-4.2c-4.3-5.2-7.5-11-10-17.2c-0.4-0.9-0.6-1.8-2-1.8C41.6,124.7,34.8,124.7,27.8,124.7z"/>
</g>
</svg>
