<?xml version="1.0" encoding="utf-8"?>
<!-- Generator: Adobe Illustrator 18.1.0, SVG Export Plug-In . SVG Version: 6.00 Build 0)  -->
<svg version="1.1" id="Layer_1" xmlns="http://www.w3.org/2000/svg" xmlns:xlink="http://www.w3.org/1999/xlink" x="0px" y="0px"
	 viewBox="0 0 216 216" enable-background="new 0 0 216 216" xml:space="preserve">
<g>
	<path d="M153.2,35.4c-1.2,11.7-2.5,22.6-6.7,33c-2.6,6.4-6.3,11.9-11.3,16.7c-4,3.9-8.3,7.5-12.2,11.4c-3.5,3.4-6.8,6.9-10,10.5
		c-2.7,3-4.4,3-6.2-0.7c-4.3-8.3-10.4-15.1-18.2-20.1C81.2,81.4,75.8,75,72.1,67.1c-2.1-4.6-4.5-9.2-6.3-13.9
		c-1.2-3.2-1.9-6.6-2.1-10c-0.2-5.4,2.4-9.7,6.5-13c2.1-1.7,4.3-3.3,6.7-4.7c5.7-3.4,11-7.3,15.5-12.3c3.5-3.9,7.9-6.6,13.3-6.6
		c3.1,0,6.2,0.3,9.2,1c9.1,2,18,4.8,26.4,9.2c4.9,2.6,9.1,5.8,10.6,11.5C152.6,30.7,152.9,33.4,153.2,35.4z M104.6,52.5
		C104.6,52.5,104.5,52.5,104.6,52.5c0,8-0.1,16,0,24.1c0.1,4.9,2.2,8.7,6.6,11.1c2.3,1.3,2.9,1,3.7-1.5c2.1-6.3,3.2-12.8,3.1-19.4
		c-0.2-13-0.7-26-1.2-39c-0.1-3.6-2-5.4-4.9-5.3c-4.1,0.2-7.3,3-7.3,6.3C104.6,36.7,104.6,44.6,104.6,52.5z"/>
	<path d="M67.4,186.5c-2,0.4-3.7,1-5.5,1.2c-3.8,0.3-7.7,0.3-11.5,0.5c-1.3,0.1-2.2-0.5-2.2-1.9c0-7.1,0-14.2,0.1-21.3
		c0-0.9,1.1-2.1,2-2.6c1.9-0.9,2.8-2.2,3-4.3c1-12.2,1.9-24.5,3-36.7c1.7-18,3.5-36,5.2-54c0-0.3,0.2-0.6,0.4-1.3
		c1.4,2.5,2.6,4.7,3.8,6.9c3.9,7.6,9.4,13.8,16.6,18.7c7.2,4.9,13,11.2,17.3,18.9c1.3,2.2,3.5,3.9,5.2,5.9c0.5,0.6,1.1,1.4,1.1,2.1
		c0.1,28.8,0,57.7,0,86.5c0,0.3-0.1,0.6-0.1,1c-2.9,0-5.8,0.2-8.7,0c-7.4-0.5-14.7-1.7-21.8-4.2c-5.5-1.9-7.6-5.8-7.8-11.2
		C67.4,189.3,67.4,187.9,67.4,186.5z M70.2,156.9c-0.1,2.7,1.5,4.5,3.9,4.9c2.5,0.4,4.6-1.3,5.1-4.2c2.1-12.1,4.2-24.1,6.2-36.2
		c0.5-3-1-5-3.8-5.5c-2.5-0.4-4.5,1.2-5,4.1c-1.3,7.5-2.6,15-3.9,22.5C71.8,147.5,70.9,152.4,70.2,156.9z M99.9,138
		c0-2.2-1.9-4.2-4.2-4.2c-2.3,0-4.4,2-4.3,4.3c0,2.3,2.1,4.3,4.4,4.2C98,142.2,99.9,140.3,99.9,138z M99.9,170.7
		c0-2.3-1.9-4.2-4.2-4.2c-2.4,0-4.4,2-4.3,4.3c0,2.2,2,4.2,4.2,4.2C97.9,175,99.9,173,99.9,170.7z"/>
	<path d="M115.2,205.5c0-5,0-9.7,0-14.5c0-24.1,0-48.3,0-72.4c0-1.4,0.2-2.4,1.7-3.2c1-0.5,1.8-1.5,2.6-2.4c5-5.2,10-10.4,15.1-15.5
		c2.1-2.1,4.3-4.1,6.5-6.2c5.5-5.3,10-11.3,12.8-18.5c0.4-1,0.9-1.9,1.7-2.8c0.3,2.8,0.7,5.5,0.9,8.3c1.5,16.3,2.9,32.6,4.3,48.9
		c0.8,9.6,1.7,19.3,2.5,28.9c0.2,2.7,0.6,5.3,3.8,6.6c1,0.4,1.9,2.5,1.9,3.8c0.2,6.1,0.1,12.2,0.1,18.3c0,1.8-0.9,2.4-2.6,2.5
		c-5.6,0.3-11.2-0.2-16.7-1.4c-0.1,2.2-0.2,4.3-0.4,6.4c-0.5,4.6-3.2,7.5-7.4,8.9C133.4,204,124.5,205.2,115.2,205.5z M146.6,156.5
		c0-0.1,0-0.4-0.1-0.6c-2.1-12.2-4.2-24.4-6.4-36.6c-0.5-2.6-2.7-4.1-5-3.7c-2.7,0.5-4.2,2.5-3.8,5.3c0.9,5.7,1.9,11.4,2.9,17
		c1.1,6.5,2.2,13.1,3.4,19.6c0.5,2.7,2.6,4.2,4.9,3.9C144.9,161.1,146.6,159.1,146.6,156.5z"/>
</g>
</svg>
