<?xml version="1.0" encoding="utf-8"?>
<!-- Generator: Adobe Illustrator 18.1.0, SVG Export Plug-In . SVG Version: 6.00 Build 0)  -->
<svg version="1.1" id="Layer_1" xmlns="http://www.w3.org/2000/svg" xmlns:xlink="http://www.w3.org/1999/xlink" x="0px" y="0px"
	 viewBox="0 0 164 164" enable-background="new 0 0 164 164" xml:space="preserve">
<g>
	<path d="M163,76.9c0,2.7,0,5.4,0,8.1c-0.1,0.6-0.3,1.1-0.3,1.7c-0.9,13.4-4.9,25.8-12.2,37.1c-13.2,20.2-31.7,32.4-55.6,36.3
		c-2.2,0.4-4.4,0.6-6.6,0.9c-3.5,0-7.1,0-10.6,0c-1.4-0.2-2.9-0.4-4.3-0.6c-18.4-2.3-34.2-10-47.2-23.2
		C13.9,124.7,6.4,109.8,3.9,92.5C3.6,90,3.3,87.5,3,85.1c0-2.7,0-5.4,0-8.1c0.2-2.1,0.4-4.2,0.7-6.3C6,54.4,12.4,40.1,23.4,27.9
		c13-14.5,29.3-23.2,48.6-26c2.8-0.4,5.7-0.6,8.5-0.9c1.7,0,3.3,0,5,0c0.6,0.1,1.2,0.3,1.8,0.3c15.4,0.8,29.5,5.7,41.9,14.7
		c18.4,13.3,29.4,31.2,32.8,53.7C162.4,72.1,162.7,74.5,163,76.9z M19,81.1c0.1,35.2,29,64.1,63.9,63.9c35.5-0.1,64-28.7,64.1-64.1
		c0.1-35-28.8-63.8-64-63.8C47.7,17.2,18.9,45.9,19,81.1z"/>
	<path d="M86.7,77.9c1.4,0,2.6,0,3.8,0c10.6,0,21.2,0,31.9,0c3.9,0,7.1,2.4,8,6c0.9,3.5-0.5,7.3-3.8,9c-1.3,0.7-2.9,1.1-4.3,1.1
		c-14.5,0.1-29.1,0.1-43.6,0c-4.6,0-8.1-3.4-8.1-8.1c0-16,0-32,0-48c0-4.6,3.6-8.2,8.1-8.2c4.5,0,8,3.6,8,8.2c0,12.6,0,25.2,0,37.8
		C86.7,76.5,86.7,77.1,86.7,77.9z"/>
</g>
</svg>
