<svg id="Layer_1_1_" enable-background="new 0 0 64 64" height="512" viewBox="0 0 64 64" width="512" xmlns="http://www.w3.org/2000/svg"><circle cx="32" cy="32" r="2"/><path d="m39.341 50 2.659-6.205v-2.795-18-2.795l-2.659-6.205h-14.682l-2.659 6.205v2.795 18 2.795l2.659 6.205zm-7.341-22c2.206 0 4 1.794 4 4s-1.794 4-4 4-4-1.794-4-4 1.794-4 4-4z"/><path d="m10.359 15.641-.412.912c.659.296 1.35.447 2.053.447.863 0 1.664-.24 2.373-.627l6.627 6.627v-3l.3-.7-4.927-4.927c.387-.709.627-1.51.627-2.373 0-.702-.15-1.392-.448-2.051l-.912.411 4.36-4.36v-3h-3l-5 5v-1c-2.757 0-5 2.243-5 5h1l-5 5v3h3zm4.466-4.583c.105.31.175.624.175.942 0 1.654-1.346 3-3 3-.319 0-.633-.07-.942-.175l.942-2.825zm-3.17-2.023-.655 1.965-1.965.655c.16-1.376 1.244-2.46 2.62-2.62z"/><path d="m43 20v3l6.627-6.627c.709.387 1.51.627 2.373.627.703 0 1.394-.151 2.052-.448l-.412-.912 4.36 4.36h3v-3l-5-5h1c0-2.757-2.243-5-5-5v1l-5-5h-3v3l4.359 4.359-.911-.411c-.297.659-.448 1.349-.448 2.052 0 .863.24 1.664.627 2.373l-4.927 4.927zm11.965-8.345-1.965-.655-.655-1.965c1.376.16 2.46 1.244 2.62 2.62zm-5.79-.597 2.825.942.942 2.825c-.309.105-.623.175-.942.175-1.654 0-3-1.346-3-3 0-.318.07-.632.175-.942z"/><path d="m47 52c0 .704.151 1.394.448 2.052l.912-.412-4.36 4.36v3h3l5-5v1c2.757 0 5-2.243 5-5h-1l5-5v-3h-3l-4.36 4.36.412-.911c-.659-.298-1.349-.449-2.052-.449-.863 0-1.664.24-2.373.627l-6.627-6.627v3l-.3.7 4.927 4.927c-.387.709-.627 1.51-.627 2.373zm7.965.345c-.16 1.376-1.245 2.46-2.62 2.62l.655-1.965zm-2.965-3.345c.318 0 .632.07.942.175l-.942 2.825-2.825.942c-.105-.309-.175-.623-.175-.942 0-1.654 1.346-3 3-3z"/><path d="m7 52c0 2.757 2.243 5 5 5v-1l5 5h3v-3l-4.359-4.359.912.412c.296-.659.447-1.35.447-2.053 0-.863-.24-1.664-.627-2.373l4.927-4.927-.3-.7v-3l-6.627 6.627c-.709-.387-1.51-.627-2.373-.627-.702 0-1.392.15-2.051.448l.411.912-4.36-4.36h-3v3l5 5zm5-3c1.654 0 3 1.346 3 3 0 .319-.07.633-.175.942l-2.825-.942-.942-2.825c.31-.105.624-.175.942-.175zm-1 4 .655 1.965c-1.376-.16-2.46-1.245-2.62-2.62z"/><path d="m29 51h6v3h-6z"/></svg>